<?xml version="1.0" encoding="UTF-8"?>
<svg width="16px" height="16px" viewBox="0 0 16 16" version="1.1" xmlns="http://www.w3.org/2000/svg" xmlns:xlink="http://www.w3.org/1999/xlink">
    <!-- Generator: Sketch 57.1 (83088) - https://sketch.com -->
    <title>american-football</title>
    <desc>Created with Sketch.</desc>
    <g id="Page-1" stroke="none" stroke-width="1" fill="none" fill-rule="evenodd">
        <g id="Bet-Select-Liga-Page-Hebrew" transform="translate(-1481.000000, -743.000000)" fill-rule="nonzero">
            <g id="Group-22" transform="translate(1255.000000, 446.000000)">
                <g id="Group-20-Copy-26" transform="translate(26.000000, 288.000000)">
                    <g id="american-football" transform="translate(200.000000, 9.000000)">
                        <path d="M16,12.1860313 C16,13.3471875 15.8374688,14.4703438 15.534125,15.5341563 C14.4703438,15.8375 13.3471563,16 12.1860313,16 C5.455875,16 0,10.544125 0,3.81396875 C0,2.6528125 0.1625625,1.52965625 0.465875,0.46584375 C1.52965625,0.1625625 2.65284375,0 3.81396875,0 C10.544125,0 16,5.455875 16,12.1860313 Z" id="Shape" fill="#A56247"></path>
                        <g id="Group" fill="#EAEAE4">
                            <path d="M6.98343307,0.358897638 C6.19524409,1.62233071 5.20859843,2.86995276 4.03927559,4.03924409 C3.98333858,4.0951811 3.92705512,4.15080315 3.87045669,4.20611024 C2.74985827,5.30267717 1.56148031,6.23303937 0.358929134,6.98340157 C0.207212598,6.4216378 0.094992126,5.84371654 0.0245669291,5.25297638 C1.02141732,4.63064567 2.00607874,3.852 2.92888189,2.92885039 C3.28037795,2.57735433 3.61111811,2.21666142 3.92012598,1.85004724 C4.42233071,1.25404724 4.86762205,0.641574803 5.25297638,0.0245354331 C5.84374803,0.0949291339 6.42166929,0.207181102 6.98343307,0.358897638 Z" id="Shape"></path>
                            <path d="M15.9754961,10.7469921 C14.9783307,11.3690079 13.9939843,12.1479685 13.0708346,13.0711181 C12.5386772,13.6032756 12.0545827,14.1554961 11.6208189,14.7192441 C11.3019213,15.1332598 11.0100157,15.5531969 10.7467402,15.9754331 C10.156,15.9050079 9.57811024,15.7924409 9.01631496,15.6410709 C9.35628346,15.0967244 9.73275591,14.5550236 10.1451339,14.0212283 C10.6891339,13.3166299 11.2953386,12.6261732 11.9607874,11.9607244 C13.1300787,10.7914331 14.3780472,9.80444094 15.6411339,9.01656693 C15.7925039,9.57833071 15.9050709,10.156252 15.9754961,10.7469921 Z" id="Shape"></path>
                        </g>
                        <g id="Group" transform="translate(0.000000, 1.920000)" fill="#B3B3B3">
                            <path d="M3.80288,1.45086578 C3.80288,1.75787236 3.81430634,2.06225067 3.8364722,2.36368782 C2.72571317,3.45304178 1.54776976,4.37728427 0.355777561,5.12271076 C0.205393171,4.56464213 0.0941580488,3.99052231 0.0243512195,3.40366791 C1.01244878,2.78543076 1.98846439,2.01190684 2.90316488,1.09482951 C3.25157463,0.745645511 3.57941073,0.387325156 3.88570537,0.0231224889 C3.83094634,0.491298133 3.80288,0.967640178 3.80288,1.45086578 Z" id="Shape"></path>
                            <path d="M11.5187824,12.8076686 C11.2026849,13.2189611 10.9133424,13.6361358 10.6523785,14.0555947 C10.0668254,13.9856327 9.49400976,13.8738062 8.93714732,13.7234318 C9.27413073,13.182666 9.64729756,12.6445284 10.0560546,12.1142443 C10.5254712,12.376758 11.0138068,12.6085461 11.5187824,12.8076686 Z" id="Shape"></path>
                        </g>
                        <path d="M5.23544317,5.79276566 L10.8472369,11.4045807 C11.0011288,11.5584731 11.2506892,11.5584731 11.4045811,11.4045807 L11.4045811,11.4045807 C11.558473,11.2506882 11.558473,11.0011268 11.4045811,10.8472343 L5.79278738,5.23541933 C5.63889552,5.08152689 5.38933503,5.08152689 5.23544317,5.23541933 L5.23544317,5.23541933 C5.08151894,5.38931178 5.08151894,5.63884085 5.23544317,5.79276566 Z" id="Shape" fill="#4D4D4D"></path>
                        <g id="Group" transform="translate(4.480000, 4.480000)" fill="#723A2A">
                            <path d="M0.238705116,2.27092837 C0.179021395,2.27092837 0.119307907,2.24815628 0.0737637209,2.20258233 C-0.0173544186,2.11146419 -0.0173544186,1.96378791 0.0737637209,1.87269953 L1.86912744,0.077335814 C1.96024558,-0.0137823256 2.10795163,-0.0137823256 2.19901023,0.077335814 C2.29012837,0.168453953 2.29012837,0.316130233 2.19901023,0.407218605 L0.403646512,2.20258233 C0.358102326,2.24815628 0.298388837,2.27092837 0.238705116,2.27092837 Z" id="Shape"></path>
                            <path d="M4.3623293,6.39458233 C4.30261581,6.39458233 4.24293209,6.37181023 4.19735814,6.32623628 C4.10626977,6.23511814 4.10626977,6.08741209 4.19735814,5.99635349 L5.99275163,4.20098977 C6.0839293,4.1099014 6.23160558,4.10993116 6.32266419,4.20098977 C6.41375256,4.29207814 6.41375256,4.43981395 6.32266419,4.53087256 L4.5272707,6.32623628 C4.48175628,6.37181023 4.42204279,6.39458233 4.3623293,6.39458233 Z" id="Shape"></path>
                            <path d="M2.98778791,5.02004093 C2.92810419,5.02004093 2.8683907,4.99726884 2.82284651,4.95169488 C2.73172837,4.86060651 2.73172837,4.71290047 2.82284651,4.62181209 L4.61821023,2.82644837 C4.70935814,2.73533023 4.85703442,2.73538977 4.94812279,2.82644837 C5.03921116,2.91756651 5.03921116,3.06524279 4.94812279,3.15633116 L3.1527293,4.95169488 C3.10721488,4.99726884 3.04747163,5.02004093 2.98778791,5.02004093 Z" id="Shape"></path>
                            <path d="M1.61324651,3.64546977 C1.55356279,3.64546977 1.4938493,3.62269767 1.44830512,3.57712372 C1.35718698,3.48600558 1.35718698,3.33829953 1.44830512,3.24724093 L3.24366884,1.45187721 C3.33472744,1.36075907 3.48246326,1.36075907 3.5735814,1.45187721 C3.66466977,1.54299535 3.66466977,1.69067163 3.5735814,1.78176 L1.77821767,3.57712372 C1.73264372,3.62272744 1.67296,3.64546977 1.61324651,3.64546977 Z" id="Shape"></path>
                        </g>
                    </g>
                </g>
            </g>
        </g>
    </g>
</svg>