<?xml version="1.0" encoding="UTF-8"?>
<svg width="16px" height="16px" viewBox="0 0 16 16" version="1.1" xmlns="http://www.w3.org/2000/svg" xmlns:xlink="http://www.w3.org/1999/xlink">
    <!-- Generator: Sketch 57.1 (83088) - https://sketch.com -->
    <title>basketball-2</title>
    <desc>Created with Sketch.</desc>
    <g id="Page-1" stroke="none" stroke-width="1" fill="none" fill-rule="evenodd">
        <g id="Bet-Select-Liga-Page-Hebrew" transform="translate(-1482.000000, -572.000000)" fill-rule="nonzero">
            <g id="Group-22" transform="translate(1255.000000, 446.000000)">
                <g id="Group-20-Copy-21" transform="translate(18.000000, 118.000000)">
                    <g id="basketball-2" transform="translate(209.000000, 8.000000)">
                        <ellipse id="Oval" fill="#FF7043" cx="8" cy="7.61904762" rx="8" ry="7.61904762"></ellipse>
                        <path d="M13.0680175,1.80955546 C13.0319818,1.76042494 12.9828422,1.72112053 12.9271507,1.69819296 C9.44479233,-1.02363742 4.41617514,-0.407868331 1.69711828,3.0738473 C-1.02193857,6.55556294 -0.409331789,11.5799767 3.07302657,14.301807 C6.55538493,17.0236374 11.5807262,16.4078683 14.303059,12.9261527 C16.9795282,9.50011831 16.4324409,4.56413951 13.0680175,1.80955546 Z M14.6765198,5.16025639 C13.8411469,4.40692187 12.8780111,3.80425425 11.832976,3.38500722 C11.9148753,2.92973114 12.2359206,2.55306387 12.6716249,2.3991216 C13.5495854,3.14918076 14.2342636,4.09576196 14.6765198,5.16025639 Z M11.1712296,3.15245612 C10.6700059,2.98868775 10.1589543,2.86422379 9.63807469,2.77906423 C9.64135066,2.16984588 9.64462663,1.52459848 9.64462663,0.836771313 C10.5094833,1.04639483 11.3317523,1.41651136 12.06557,1.92091795 C11.6200378,2.19932419 11.2989925,2.6414988 11.1712296,3.15245612 Z M8.94684457,0.702481246 C8.94684457,1.41651136 8.94684457,2.08141096 8.94029263,2.70700615 C8.45872473,2.661151 7.97060488,2.64804953 7.48576101,2.66442637 C7.41041365,2.07813559 7.12540408,1.53769995 6.68314784,1.14465586 C6.52917715,1.01691652 6.35555063,0.908829398 6.16882022,0.830220578 C6.73556339,0.689379776 7.31541046,0.617321692 7.89525752,0.617321692 C8.24906251,0.620597059 8.59959153,0.646799999 8.94684457,0.702481246 Z M4.80273985,1.3116996 L4.80929179,1.3116996 C5.3137915,1.24619225 5.82156717,1.38048232 6.23106369,1.67854076 C6.52262521,1.95039626 6.71263159,2.31068668 6.77159909,2.70373078 C4.85187943,2.84784695 3.00423115,3.48326824 1.40228079,4.55103804 C2.15575438,3.12952855 3.34820823,1.99297603 4.80273985,1.3116996 Z M0.809329837,6.09373612 C0.825709698,6.08063465 0.842089559,6.06425782 0.855193447,6.04460561 C1.55297551,4.94408214 4.01323057,3.66341345 6.85022242,3.39483332 L6.85022242,3.41121016 C6.85022242,4.89822699 5.03533387,6.97480998 3.58080225,8.64197203 C2.75525727,9.48701684 2.04109535,10.4270473 1.44486843,11.4424112 C0.553804013,9.80472748 0.324485964,7.89191287 0.809329837,6.09373612 L0.809329837,6.09373612 Z M1.94281619,12.2219487 C1.94936813,12.1957457 1.95592008,12.1728182 1.95919605,12.1466152 C1.95919605,11.5603245 3.05009476,10.3091341 4.10823376,9.10379884 C5.72328801,7.25649158 7.55128045,5.16025639 7.55128045,3.41448552 C7.55128045,3.39155795 7.54800448,3.37518111 7.54800448,3.35225354 C8.00991655,3.3358767 8.47510459,3.34897817 8.93701665,3.39155795 C8.85511735,10.49583 8.37354945,11.9500932 6.55210895,15.1173735 C6.54555701,15.130475 6.54228104,15.1435765 6.53900507,15.1599533 C4.68152888,14.8062136 3.04026685,13.7548207 1.94281619,12.2219487 Z M7.26954685,15.2582143 C9.13357498,11.9730208 9.55945136,10.2043223 9.63152274,3.4767175 C10.1163666,3.55532632 10.5913826,3.66996419 11.0565706,3.82063109 C11.0500187,3.91561675 11.0434667,4.00732704 11.0434667,4.10886343 C11.1417459,5.55330049 11.5250346,6.96170851 12.1704011,8.25547866 C12.9140468,10.0372786 13.6151048,11.7240928 12.8354235,13.3650519 C11.4889989,14.6031408 9.72652593,15.290968 7.89853349,15.290968 C7.68887128,15.290968 7.47920906,15.2778665 7.26954685,15.2582143 Z M13.8608027,12.215398 C13.9820137,10.7873377 13.3923387,9.37237898 12.8124917,7.9901739 C12.2097128,6.77828793 11.8460799,5.4615902 11.7412488,4.1121388 C11.7412488,4.10231269 11.7412488,4.09248659 11.7412488,4.08266049 C13.0450857,4.63619759 14.1982279,5.49761924 15.0991202,6.58831661 C15.4856849,8.5535371 15.0368767,10.5908157 13.8608027,12.215398 Z" id="Shape" fill="#37474F"></path>
                    </g>
                </g>
            </g>
        </g>
    </g>
</svg>