<?xml version="1.0" encoding="UTF-8"?>
<svg width="32px" height="32px" viewBox="0 0 32 32" version="1.1" xmlns="http://www.w3.org/2000/svg" xmlns:xlink="http://www.w3.org/1999/xlink">
    <!-- Generator: Sketch 57.1 (83088) - https://sketch.com -->
    <title>basketball_icon</title>
    <desc>Created with Sketch.</desc>
    <g id="Page-1" stroke="none" stroke-width="1" fill="none" fill-rule="evenodd">
        <g id="Bet-Chance-Page-English-2" transform="translate(-474.000000, -76.000000)" fill-rule="nonzero">
            <g id="Group-34" transform="translate(0.000000, 56.000000)">
                <g id="Group-8-Copy-2" transform="translate(426.000000, 5.000000)">
                    <g id="basketball_icon" transform="translate(48.000000, 15.000000)">
                        <ellipse id="Oval" cx="16" cy="15.2380952" rx="16" ry="15.2380952"></ellipse>
                        <path d="M26.136035,3.61911091 C26.0639636,3.52084989 25.9656844,3.44224107 25.8543014,3.39638592 C18.8895847,-2.04727484 8.83235027,-0.815736661 3.39423656,6.14769461 C-2.04387715,13.1111259 -0.818663579,23.1599533 6.14605314,28.6036141 C13.1107699,34.0472748 23.1614523,32.8157367 28.606118,25.8523054 C33.9590564,19.0002366 32.8648817,9.12827902 26.136035,3.61911091 Z M29.3530396,10.3205128 C27.6822938,8.81384374 25.7560222,7.60850851 23.665952,6.77001443 C23.8297506,5.85946227 24.4718411,5.10612775 25.3432497,4.79824321 C27.0991708,6.29836151 28.4685271,8.19152392 29.3530396,10.3205128 Z M22.3424593,6.30491225 C21.3400118,5.9773755 20.3179085,5.72844757 19.2761494,5.55812846 C19.2827013,4.33969176 19.2892533,3.04919697 19.2892533,1.67354263 C21.0189665,2.09278966 22.6635045,2.83302272 24.13114,3.8418359 C23.2400756,4.39864837 22.5979851,5.28299759 22.3424593,6.30491225 Z M17.8936891,1.40496249 C17.8936891,2.83302272 17.8936891,4.16282191 17.8805853,5.41401229 C16.9174495,5.322302 15.9412098,5.29609906 14.971522,5.32885274 C14.8208273,4.15627118 14.2508082,3.07539991 13.3662957,2.28931171 C13.0583543,2.03383305 12.7111013,1.8176588 12.3376404,1.66044116 C13.4711268,1.37875955 14.6308209,1.23464338 15.790515,1.23464338 C16.498125,1.24119412 17.1991831,1.2936 17.8936891,1.40496249 Z M9.60547969,2.6233992 L9.61858358,2.6233992 C10.627583,2.4923845 11.6431343,2.76096463 12.4621274,3.35708151 C13.0452504,3.90079252 13.4252632,4.62137336 13.5431982,5.40746156 C9.70375885,5.6956939 6.00846231,6.96653648 2.80456158,9.10207608 C4.31150875,6.2590571 6.69641645,3.98595207 9.60547969,2.6233992 Z M1.61865967,12.1874722 C1.6514194,12.1612693 1.68417912,12.1285156 1.71038689,12.0892112 C3.10595102,9.88816428 8.02646113,7.3268269 13.7004448,6.78966664 L13.7004448,6.82242031 C13.7004448,9.79645399 10.0706677,13.94962 7.16160449,17.2839441 C5.51051455,18.9740337 4.08219071,20.8540946 2.88973686,22.8848225 C1.10760803,19.609455 0.648971929,15.7838257 1.61865967,12.1874722 L1.61865967,12.1874722 Z M3.88563238,24.4438974 C3.89873627,24.3914915 3.91184016,24.3456363 3.9183921,24.2932305 C3.9183921,23.1206489 6.10018953,20.6182682 8.21646751,18.2075977 C11.446576,14.5129832 15.1025609,10.3205128 15.1025609,6.82897105 C15.1025609,6.7831159 15.096009,6.75036223 15.096009,6.70450708 C16.0198331,6.67175341 16.9502092,6.69795635 17.8740333,6.7831159 C17.7102347,20.99166 16.7470989,23.9001864 13.1042179,30.2347471 C13.091114,30.26095 13.0845621,30.287153 13.0780101,30.3199066 C9.36305775,29.6124273 6.0805337,27.5096413 3.88563238,24.4438974 Z M14.5390937,30.5164287 C18.26715,23.9460415 19.1189027,20.4086446 19.2630455,6.95343501 C20.2327332,7.11065265 21.1827651,7.33992837 22.1131412,7.64126218 C22.1000373,7.8312335 22.0869334,8.01465407 22.0869334,8.21772686 C22.2834918,11.106601 23.0500693,13.923417 24.3408023,16.5109573 C25.8280936,20.0745571 27.2302097,23.4481857 25.6708469,26.7301039 C22.9779979,29.2062817 19.4530519,30.581936 15.797067,30.581936 C15.3777426,30.581936 14.9584181,30.5557331 14.5390937,30.5164287 Z M27.7216055,24.4307959 C27.9640274,21.5746755 26.7846775,18.744758 25.6249833,15.9803478 C24.4194256,13.5565759 23.6921598,10.9231804 23.4824976,8.22427759 C23.4824976,8.20462539 23.4824976,8.18497318 23.4824976,8.16532098 C26.0901714,9.27239519 28.3964557,10.9952385 30.1982404,13.1766332 C30.9713698,17.1070742 30.0737535,21.1816314 27.7216055,24.4307959 Z" id="Shape" fill="#FFFFFF"></path>
                    </g>
                </g>
            </g>
        </g>
    </g>
</svg>