<?xml version="1.0" encoding="UTF-8"?>
<svg width="16px" height="16px" viewBox="0 0 16 16" version="1.1" xmlns="http://www.w3.org/2000/svg" xmlns:xlink="http://www.w3.org/1999/xlink">
    <!-- Generator: Sketch 57.1 (83088) - https://sketch.com -->
    <title>big-baseball-ball</title>
    <desc>Created with Sketch.</desc>
    <g id="Page-1" stroke="none" stroke-width="1" fill="none" fill-rule="evenodd">
        <g id="Bet-Select-Liga-Page-Hebrew" transform="translate(-1482.000000, -674.000000)" fill="#000000" fill-rule="nonzero">
            <g id="Group-22" transform="translate(1255.000000, 446.000000)">
                <g id="Group-20-Copy-24" transform="translate(34.000000, 220.000000)">
                    <g id="big-baseball-ball" transform="translate(201.000000, 16.000000) rotate(-330.000000) translate(-201.000000, -16.000000) translate(193.000000, 8.000000)">
                        <path d="M14.5810683,3.45499996 C13.3670918,1.69684432 11.5411433,0.51675796 9.43961305,0.132088927 C8.96091827,0.044447579 8.47338431,0 7.99061473,0 C4.13259558,0 0.827369857,2.75875904 0.131582354,6.55968529 C-0.662627204,10.8980574 2.22076285,15.0737476 6.55904401,15.8679111 C7.03755072,15.9554897 7.52508468,16 8.00797964,16 C8.00823039,16 8.00841846,16 8.00860653,16 C11.8663122,16 15.1712245,13.2413663 15.867012,9.44031471 C16.2517984,7.3386777 15.7951075,5.21303022 14.5810683,3.45499996 Z M0.933189237,6.7064438 C1.18795817,5.31471425 1.83227784,4.07864526 2.74083251,3.10255386 C2.92745827,3.30278738 3.10117007,3.51217372 3.26203057,3.72939637 L2.93046736,4.05118681 C2.76897996,4.20791311 2.76515592,4.4658846 2.92187894,4.62737538 C3.00174498,4.70968804 3.1079405,4.75106378 3.21432408,4.75106378 C3.31657018,4.75106378 3.41894165,4.71282256 3.49805543,4.63596398 L3.71690345,4.4235685 C3.86071249,4.67370368 3.98909999,4.93154979 4.10125098,5.19585302 L3.63427908,5.3970269 C3.42759276,5.48604744 3.33224248,5.72583868 3.42132384,5.93252933 C3.48771171,6.08662263 3.63791505,6.17884038 3.79570378,6.17884038 C3.84949112,6.17884038 3.9042188,6.1681203 3.95675236,6.14548903 L4.37664466,5.96456418 C4.45820332,6.24065324 4.52302396,6.52175753 4.57079313,6.80637249 L4.18111703,6.8446764 C3.95712849,6.86668077 3.79338428,7.06603663 3.81545088,7.29002986 C3.83613832,7.50048193 4.01336071,7.65770976 4.22048585,7.65770976 C4.23377596,7.65770976 4.24725414,7.65708285 4.26079501,7.65570366 L4.65968643,7.61652209 C4.67391688,7.88747052 4.67328999,8.16023697 4.65648928,8.4338184 L4.26079501,8.39495028 C4.0372453,8.37294591 3.8374548,8.53663085 3.81545088,8.76062408 C3.79344697,8.98461731 3.95719118,9.18397317 4.18111703,9.20597754 L4.5605121,9.24321571 C4.55756571,9.25995408 4.55518352,9.27675514 4.55211175,9.29349351 C4.50308879,9.56080589 4.4391458,9.82297764 4.36197539,10.079758 L3.95675236,9.90516492 C3.75000335,9.81608169 3.51027983,9.91143397 3.42126115,10.1181246 C3.33217979,10.3248153 3.42753007,10.5645438 3.63421639,10.653627 L4.08263228,10.8468392 C3.96991709,11.1089483 3.84203111,11.3636599 3.69897434,11.6097829 L3.49799274,11.41469 C3.33656804,11.2579637 3.07860195,11.2617878 2.92181625,11.4232786 C2.76509323,11.5847693 2.76891727,11.8427408 2.93040467,11.9994671 L3.24102969,12.3009458 C3.08687693,12.5065081 2.92075053,12.7039832 2.74384159,12.8933713 C1.25259074,11.2876163 0.509159444,9.02285853 0.933189237,6.7064438 Z M8.00804233,15.1850232 C7.57417033,15.1850232 7.13603546,15.1450267 6.70579944,15.0662874 C5.41270918,14.829568 4.26380409,14.2580812 3.3315529,13.4580248 C3.50764688,13.2700786 3.67440017,13.0751111 3.83030823,12.8728088 L4.11805168,13.152095 C4.19722815,13.2289536 4.29953694,13.2671948 4.40178303,13.2671948 C4.50810393,13.2671948 4.61429944,13.2258191 4.69422818,13.1435064 C4.8509512,12.9820157 4.84712716,12.7240442 4.68563976,12.5673179 L4.29941156,12.1924286 C4.50120811,11.8649333 4.67905739,11.523458 4.83126679,11.1693193 L5.15417889,11.3084295 C5.20671244,11.3310608 5.26144012,11.3417809 5.31522746,11.3417809 C5.47301619,11.3417809 5.62321953,11.2495631 5.6896074,11.0954698 C5.77868876,10.8887792 5.68333848,10.6490506 5.47665217,10.5599674 L5.11493545,10.4041188 C5.21329481,10.090102 5.29359969,9.76862496 5.35378132,9.44031471 C5.36092789,9.40125851 5.36682068,9.36213963 5.37334036,9.32302074 L5.82808786,9.36771908 C5.84162873,9.36903558 5.85504422,9.36972518 5.86839702,9.36972518 C6.07552216,9.36972518 6.25274454,9.21249736 6.27343198,9.00204528 C6.29543589,8.77805205 6.13169169,8.57869619 5.90776584,8.55669182 L5.46768761,8.51349805 C5.48900194,8.1865043 5.49006766,7.8604509 5.47157434,7.53677974 L5.90776584,7.49396212 C6.13175438,7.47195775 6.29549858,7.27260189 6.27343198,7.04860866 C6.25142807,6.82461543 6.05226446,6.66049165 5.82808786,6.68293486 L5.38437366,6.72650477 C5.32519505,6.35826065 5.2394989,5.99540792 5.12979279,5.64007805 L5.47665217,5.49062385 C5.68333848,5.40160331 5.77868876,5.16181207 5.6896074,4.95512142 C5.60058873,4.74843078 5.36080251,4.65314119 5.1541162,4.74216173 L4.84994817,4.8732476 C4.69867912,4.51741621 4.52076715,4.1722422 4.31815563,3.84004514 L4.68563976,3.48333608 C4.84712716,3.32660978 4.8509512,3.06863828 4.69422818,2.9071475 C4.53750517,2.74565672 4.27960177,2.7418326 4.11805168,2.8985589 L3.85212407,3.15665577 C3.68938289,2.94306917 3.51454269,2.73700543 3.32910802,2.53858993 C4.5919194,1.4575546 6.2268539,0.814976765 7.99067742,0.814976765 C8.42429866,0.814976765 8.86249621,0.854910627 9.2929203,0.933712611 C10.5477075,1.16341068 11.6928512,1.70919435 12.6401478,2.5130122 C12.4455605,2.71926401 12.2625707,2.93379097 12.0928083,3.15665577 L11.8268807,2.8985589 C11.665456,2.74176991 11.4074899,2.74559403 11.2507042,2.9071475 C11.0939812,3.06863828 11.0978052,3.32660978 11.2592926,3.48333608 L11.6267768,3.84004514 C11.4241026,4.1723049 11.2461906,4.51741621 11.0949842,4.8732476 L10.7908162,4.74216173 C10.5840672,4.65301581 10.3443437,4.74843078 10.255325,4.95512142 C10.1662436,5.16181207 10.2615939,5.40154062 10.4682802,5.49062385 L10.8151396,5.64007805 C10.7054335,5.99540792 10.6197374,6.35826065 10.5605587,6.72650477 L10.1167819,6.68293486 C9.89342021,6.66086779 9.69344164,6.82461543 9.67143773,7.04860866 C9.64943382,7.27260189 9.81317803,7.47195775 10.0371039,7.49396212 L10.4732954,7.53677974 C10.4548021,7.8604509 10.4558678,8.1865043 10.4771821,8.51349805 L10.0371666,8.55669182 C9.81317803,8.57869619 9.64943382,8.77805205 9.67150042,9.00204528 C9.69218786,9.21249736 9.86941025,9.36972518 10.0765354,9.36972518 C10.0898255,9.36972518 10.1033037,9.36909828 10.1168445,9.36771908 L10.571592,9.32308343 C10.5781744,9.36220232 10.5840045,9.4013212 10.5912138,9.44044009 C10.6513954,9.76875034 10.7317003,10.0902273 10.8300596,10.4041815 L10.4683429,10.5600301 C10.2616566,10.6490506 10.1663063,10.8888419 10.2553877,11.0955325 C10.3217756,11.2496258 10.4719789,11.3418436 10.6297676,11.3418436 C10.683555,11.3418436 10.7382826,11.3311235 10.7908162,11.3084922 L11.1137283,11.1693819 C11.2659377,11.523458 11.4438497,11.8649333 11.6455835,12.1924286 L11.2592926,12.5673179 C11.0978052,12.7240442 11.0939812,12.9820157 11.2507042,13.1435064 C11.3305703,13.2258191 11.4367658,13.2671948 11.5431494,13.2671948 C11.6453955,13.2671948 11.7477669,13.2289536 11.8268807,13.152095 L12.1146242,12.8728088 C12.2784938,13.0853923 12.4540235,13.2900769 12.6401478,13.4867997 C11.3813485,14.5526013 9.7581369,15.1850232 8.00804233,15.1850232 Z M15.0654678,9.2935562 C14.8081913,10.6988896 14.1536533,11.9453025 13.2311189,12.925845 C13.0427379,12.7266772 12.8666439,12.5182312 12.7037147,12.3009458 L13.0143397,11.9994671 C13.1758271,11.8427408 13.1796511,11.5847693 13.0229281,11.4232786 C12.8662678,11.2617878 12.6083017,11.2579637 12.4467516,11.41469 L12.24577,11.6097829 C12.1027132,11.3636599 11.9747646,11.1089483 11.8621121,10.8468392 L12.3105279,10.653627 C12.5172143,10.5646065 12.6125645,10.3248153 12.5234832,10.1181246 C12.4344645,9.91149666 12.1946783,9.81620707 11.987992,9.90516492 L11.5827689,10.079758 C11.5055985,9.82304033 11.4416555,9.56086858 11.3926326,9.29361889 C11.3895608,9.27681783 11.3871786,9.26001677 11.3842322,9.2432784 L11.76369,9.20604023 C11.9876785,9.18403586 12.1514227,8.98468 12.1293561,8.76068677 C12.1073522,8.53669355 11.9079379,8.37275783 11.684012,8.39501297 L11.2883177,8.43388109 C11.271517,8.16036235 11.2708901,7.8875959 11.2851833,7.61658478 L11.6840747,7.65576635 C11.6976156,7.65708285 11.7110311,7.65777245 11.7243839,7.65777245 C11.931509,7.65777245 12.1087314,7.50054462 12.1294188,7.29009255 C12.1514227,7.06609932 11.9876785,6.86674346 11.7637527,6.84473909 L11.3740766,6.80643518 C11.4219084,6.52182022 11.4866664,6.24071593 11.5682251,5.96462687 L11.9881174,6.14555172 C12.0406509,6.16818299 12.0953786,6.17890307 12.1491659,6.17890307 C12.3069547,6.17890307 12.457158,6.08668532 12.5235459,5.93259202 C12.6126272,5.72590137 12.517277,5.48617282 12.3105906,5.39708959 L11.8436187,5.19591571 C11.9557697,4.93161248 12.0841572,4.67376637 12.2279663,4.42363119 L12.4468143,4.63602667 C12.5259908,4.71288525 12.6282995,4.75112647 12.7305456,4.75112647 C12.8368665,4.75112647 12.943062,4.70975073 13.0229908,4.62743807 C13.1797138,4.46594729 13.1758898,4.2079758 13.0144024,4.0512495 L12.6828391,3.72945906 C12.8512224,3.50208054 13.033836,3.28341601 13.2304294,3.07478195 C13.4756069,3.33626412 13.7030433,3.61774455 13.9104819,3.91822022 C15.0007726,5.49701828 15.410948,7.40607001 15.0654678,9.2935562 Z" id="Shape"></path>
                    </g>
                </g>
            </g>
        </g>
    </g>
</svg>