<?xml version="1.0" encoding="UTF-8"?>
<svg width="32px" height="32px" viewBox="0 0 32 32" version="1.1" xmlns="http://www.w3.org/2000/svg" xmlns:xlink="http://www.w3.org/1999/xlink">
    <!-- Generator: Sketch 57.1 (83088) - https://sketch.com -->
    <title>black_jack_icon</title>
    <desc>Created with Sketch.</desc>
    <g id="Page-1" stroke="none" stroke-width="1" fill="none" fill-rule="evenodd">
        <g id="Bet-Chance-Page-English-2" transform="translate(-740.000000, -76.000000)" fill="#FFFFFF" fill-rule="nonzero">
            <g id="Group-34" transform="translate(0.000000, 56.000000)">
                <g id="Group-8-Copy-4" transform="translate(692.000000, 5.000000)">
                    <g id="black_jack_icon" transform="translate(48.000000, 15.000000)">
                        <path d="M26.9303751,26.4128095 L25.6560525,24.2481917 C25.5759364,24.1118982 25.436424,24.0212033 25.2793312,24.0034914 C25.1219873,23.9847118 24.9650828,24.0424324 24.8574033,24.158753 L23.1365404,25.9887293 C22.9835915,26.1512766 22.9562164,26.3952232 23.0692328,26.5876672 L24.3435555,28.7527874 C24.4238599,28.8890181 24.5636235,28.9795246 24.7207791,28.9969852 C24.7393012,28.9989951 24.7578861,29 24.7765338,29 C24.9150417,28.9999372 25.0473337,28.9426562 25.1422046,28.8417236 L26.8635699,27.0122498 C27.0165815,26.8495141 27.043831,26.6052534 26.9303751,26.4128095 Z M24.8674492,27.6654539 L24.1240525,26.4027602 L25.1286427,25.3350228 L25.8720394,26.5977165 L24.8674492,27.6654539 Z" id="Shape"></path>
                        <path d="M31.525999,2.25987408 L11.3851145,0.00335142294 C11.0923799,-0.0293817555 10.8285121,0.181350581 10.7957787,0.474082529 C10.7957787,0.474149195 10.7957787,0.474215861 10.7957787,0.474282528 L10.6101779,2.13347468 L0.533335573,2.13347468 C0.238801003,2.13347468 0,2.37227355 0,2.66680548 L0,31.4666692 C0,31.7612011 0.238801003,32 0.533335573,32 L20.8000873,32 C21.0946219,32 21.3334229,31.7612011 21.3334229,31.4666692 L21.3334229,31.1696039 L28.2043851,31.938667 C28.2242518,31.9408003 28.2441853,31.9418669 28.2641187,31.9418669 C28.5359865,31.9416003 28.7641208,31.7368679 28.7937209,31.4666692 L31.9969344,2.84653797 C32.0281345,2.55473935 31.8176669,2.29254059 31.525999,2.25987408 Z M20.2667518,11.3323645 L20.2048848,11.3510311 C20.2240849,11.4160974 20.246485,11.4795638 20.2667518,11.5440968 L20.2667518,30.9333384 L1.06667115,30.9333384 L1.06667115,3.20013629 L20.2667518,3.20013629 L20.2667518,11.3323645 Z M27.7931834,30.8192056 L21.3334229,30.0965423 L21.3334229,19.2629936 C21.9786256,18.4451308 22.7144954,17.7031343 23.5270321,17.0512707 L23.8379668,16.8027386 C24.0681011,16.6190728 24.1058346,16.2836077 23.9222338,16.0534088 L23.6731661,15.7424769 C22.631695,14.4345498 21.8386917,12.9468902 21.3334229,11.3531644 L21.3334229,2.66680548 C21.3334229,2.37227355 21.0946219,2.13347468 20.8000873,2.13347468 L11.6832491,2.13347468 L11.7963162,1.12281279 L30.877463,3.25613603 L27.7931834,30.8192056 Z M21.3334229,17.6299347 L21.3334229,14.111018 C21.7422913,14.8819477 22.2184933,15.6152775 22.7563622,16.3024743 C22.2534934,16.713339 21.7781581,17.1568036 21.3334229,17.6299347 Z" id="Shape"></path>
                        <path d="M18.5447798,25.4935585 C17.9872532,24.8770149 17.1042937,24.8328094 16.5,25.3912131 C15.84865,24.7892903 14.8855105,24.8935577 14.348794,25.6240472 C13.8508821,26.3017509 13.8902377,27.2919136 14.4400523,27.9172434 L16.1538238,29.839223 C16.3450317,30.0535923 16.6549795,30.0535923 16.8461874,29.839223 L18.5599589,27.9172434 C19.1525566,27.2432464 19.1457627,26.1581516 18.5447798,25.4935585 Z" id="Shape"></path>
                        <path d="M13.2074128,13.0092121 C12.4854746,13.012775 11.7933278,13.2784374 11.2777767,13.7499056 L11,14.0090253 L10.7222259,13.7499056 C10.2073693,13.2678135 9.50723641,12.9978109 8.77779827,13 C8.03426302,13.0004668 7.32239416,13.2807695 6.80337087,13.7773723 C6.28650033,14.2573267 5.99719727,14.910373 6,15.5906916 L6,15.6466615 C5.99053066,18.1508586 7.50822589,20.4421889 9.91334402,21.5545895 L10.7516701,21.9453419 C10.9079882,22.0182194 11.0920144,22.0182194 11.2483325,21.9453419 L12.0816586,21.5561442 C14.4894851,20.4429014 16.0091942,18.1493686 16,15.6425156 L16,15.5865457 C15.9916943,14.1554927 14.7414968,13.0015681 13.2074128,13.0092121 Z" id="Shape"></path>
                        <path d="M6.59053739,4.52517819 C6.57537263,4.50728199 6.55990456,4.48979719 6.51920233,4.50207083 C5.9651424,3.87563521 5.0801266,3.82976333 4.47766073,4.39620211 C3.83212693,3.79493088 2.87759583,3.8990854 2.34567646,4.62878417 C1.85221494,5.30575428 1.89121872,6.29491369 2.43611913,6.91949799 L4.13457304,8.83939702 C4.32407197,9.05353433 4.63124949,9.05353433 4.82074842,8.83939702 L6.51920233,6.91949799 C7.12409456,6.26467528 7.16977084,5.20893652 6.59053739,4.52517819 Z" id="Shape"></path>
                    </g>
                </g>
            </g>
        </g>
    </g>
</svg>