<?xml version="1.0" encoding="UTF-8"?>
<svg width="32px" height="32px" viewBox="0 0 32 32" version="1.1" xmlns="http://www.w3.org/2000/svg" xmlns:xlink="http://www.w3.org/1999/xlink">
    <!-- Generator: Sketch 57.1 (83088) - https://sketch.com -->
    <title>casino_icon</title>
    <desc>Created with Sketch.</desc>
    <g id="Page-1" stroke="none" stroke-width="1" fill="none" fill-rule="evenodd">
        <g id="Bet-Chance-Page-English-2" transform="translate(-873.000000, -76.000000)" fill="#FFFFFF" fill-rule="nonzero">
            <g id="Group-34" transform="translate(0.000000, 56.000000)">
                <g id="Group-8-Copy-5" transform="translate(825.000000, 5.000000)">
                    <g id="casino_icon" transform="translate(48.000000, 15.000000)">
                        <path d="M25.6337297,15.5252557 C25.2530561,15.4661123 24.8683909,15.4365738 24.4831268,15.4369035 C22.7615135,15.4353763 21.0930561,16.0329979 19.7638919,17.1272516 C19.3884075,17.0672432 19.0088649,17.0359085 18.628657,17.03358 C17.6196923,17.0330478 16.6212391,17.2386195 15.6945031,17.6376549 C14.7722245,17.2398836 13.7785613,17.0343784 12.7741871,17.03358 C12.5447983,17.03358 12.3186029,17.0474179 12.0940042,17.0681746 C8.87830353,14.5027193 4.19173389,15.0298212 1.62627859,18.2455218 C-0.939176715,21.4612225 -0.412074844,26.1477921 2.80362578,28.7132474 C4.12394179,29.7665863 5.76299376,30.3399252 7.45194179,30.3391933 C7.67760499,30.3391933 7.90220374,30.3184366 8.12573805,30.2987443 C10.2620208,32.0197588 13.1752183,32.4173971 15.6945031,31.3317921 C18.2477173,32.4300374 21.2005655,32.0100457 23.3462952,30.2433929 C27.4106279,30.8750769 31.2174304,28.092341 31.8491143,24.0280748 C32.4807983,19.9638087 29.6979958,16.1569397 25.6337297,15.5252557 Z M25.0152848,16.528499 C26.3370644,16.637605 27.5916507,17.1575218 28.6030104,18.0155343 L27.8488482,18.7680998 C27.0410644,18.1052141 26.0551185,17.6962661 25.0152848,17.592948 L25.0152848,16.528499 Z M23.9508358,16.528499 L23.9508358,17.592948 C22.9108025,17.6967318 21.9248565,18.1062121 21.1172723,18.7696965 L20.3631102,18.0155343 C21.3745364,17.1575884 22.6290561,16.637605 23.9508358,16.528499 Z M19.6105447,18.7680998 L19.6105447,18.7680998 L20.3647069,19.522262 C19.701289,20.3299127 19.2918753,21.3158586 19.1879584,22.3558254 L18.1235094,22.3558254 C18.2327484,21.0341123 18.7526653,19.7795925 19.6105447,18.7680998 Z M19.1879584,23.4202744 C19.2918753,24.4602412 19.701289,25.4461871 20.3647069,26.2538378 L19.6105447,27.008 C18.7526653,25.9965738 18.2326819,24.7420541 18.1235094,23.4202744 L19.1879584,23.4202744 Z M18.0963659,18.1251726 L18.0963659,19.0698711 C18.0692225,19.114578 18.0431435,19.1582204 18.0149356,19.2039917 C17.0053056,19.3194179 16.0504283,19.7237755 15.2649314,20.368499 L14.5086403,19.6122079 C15.5200665,18.754262 16.7745863,18.2342786 18.0963659,18.1251726 Z M13.3063451,18.127368 C13.6896798,18.1591684 14.0693555,18.2259626 14.4405156,18.3269522 C14.0615717,18.5855468 13.7070437,18.8782037 13.3813888,19.2013971 L13.3063451,19.191817 L13.3063451,18.127368 L13.3063451,18.127368 Z M13.7560748,20.3647734 L14.5118337,21.1205322 C13.8484158,21.9276507 13.4384033,22.9129979 13.3334886,23.952499 L12.2690395,23.952499 C12.3782786,22.6307859 12.8981954,21.3762661 13.7560748,20.3647734 Z M12.241896,18.1251726 L12.241896,19.1896216 C11.2018628,19.2934054 10.2159168,19.7028857 9.40833264,20.3663701 L8.65417048,19.6122079 C9.66559667,18.754262 10.9201164,18.2342786 12.241896,18.1251726 Z M8.65576715,21.1189356 C7.99234927,21.9265863 7.58293555,22.9125322 7.47901871,23.952499 L6.41456965,23.952499 C6.5237422,22.6307193 7.04372557,21.3761996 7.90160499,20.3647734 L8.65576715,21.1189356 Z M7.98409979,16.5248399 C8.91642412,16.6040748 9.82007484,16.8867526 10.6313846,17.3529813 C10.1690811,17.4914927 9.72148025,17.6749106 9.29496881,17.9006403 C8.87291476,17.7423035 8.43243243,17.6385863 7.98409979,17.5919501 L7.98409979,16.5248399 Z M8.10651143,18.6834761 C6.3469106,20.0950021 5.32304366,22.2288898 5.32297713,24.4847235 C5.3233763,25.2573139 5.4442578,26.0251143 5.68116424,26.7605156 C3.54248649,25.7829522 2.60111435,23.2567484 3.57867775,21.1180707 C4.27156757,19.6022287 5.78514761,18.6299875 7.45187526,18.6302536 C7.67115177,18.6313846 7.89002911,18.6491476 8.10651143,18.6834761 Z M6.91965073,16.528499 L6.91965073,17.592948 C5.87961746,17.6967318 4.89367152,18.1062121 4.08608732,18.7696965 L3.33192516,18.0155343 C4.34335135,17.1575884 5.5978711,16.637605 6.91965073,16.528499 Z M2.57935967,18.7680998 L3.33352183,19.522262 C2.67010395,20.3299127 2.26069023,21.3158586 2.15677339,22.3558254 L1.09232432,22.3558254 C1.20156341,21.0341123 1.72148025,19.7795925 2.57935967,18.7680998 Z M2.57935967,27.008 C1.72148025,25.9965738 1.20149688,24.7420541 1.09232432,23.4202744 L2.15783784,23.4202744 C2.26049064,24.4603077 2.66777547,25.4469189 3.32873181,26.256499 L2.57935967,27.008 Z M6.91965073,29.2476008 C5.5978711,29.1385613 4.34328482,28.618578 3.33192516,27.7605655 L4.08395842,27.0085322 C4.71298129,27.5229938 5.45230769,27.8852391 6.2442578,28.0671268 C6.44144699,28.4221871 6.66730977,28.7606154 6.91965073,29.0788857 L6.91965073,29.2476008 L6.91965073,29.2476008 Z M7.90160499,28.6046736 C7.04372557,27.5932474 6.5237422,26.3387277 6.41456965,25.016948 L7.47901871,25.016948 C7.58293555,26.0569148 7.99234927,27.0428607 8.65576715,27.8505114 L7.90160499,28.6046736 Z M12.241896,30.8442744 C10.9201164,30.7352349 9.66553015,30.2152516 8.65417048,29.3572391 L9.40620374,28.6052058 C10.2145863,29.2682911 11.2013971,29.6770395 12.241896,29.7798254 L12.241896,30.8442744 Z M8.51632432,24.4847235 C8.5191185,22.2367401 10.2690062,20.3782121 12.5127983,20.2402328 C10.7323077,22.7897879 10.7323077,26.179659 12.5127983,28.7292141 C10.2690728,28.5913015 8.5191185,26.7327734 8.51632432,24.4847235 Z M12.2690395,25.016948 L13.3334886,25.016948 C13.4374054,26.0569148 13.8468191,27.0428607 14.510237,27.8505114 L13.7560748,28.6046736 C12.8981954,27.5932474 12.3782786,26.3387277 12.2690395,25.016948 Z M13.3063451,30.8426778 L13.3063451,29.7782287 L13.3813888,29.7686486 C13.7069771,30.0919751 14.0615052,30.3848981 14.4405156,30.6436258 C14.0693555,30.7444823 13.6897464,30.8110769 13.3063451,30.8426778 Z M18.0963659,30.8442744 C16.7745863,30.7352349 15.52,30.2152516 14.5086403,29.3572391 L15.2628025,28.6030769 C16.0703867,29.2665613 17.0563326,29.6760416 18.0963659,29.7798254 L18.0963659,30.8442744 Z M18.6285904,28.7425198 C16.2770894,28.7381289 14.3743202,26.8283077 14.3787034,24.4768067 C14.382237,22.5766985 15.6444075,20.9089064 17.4720665,20.3892557 C16.4120083,23.3240083 17.306079,26.6083659 19.7074096,28.600948 C19.3554096,28.6942869 18.9928316,28.7418545 18.6285904,28.7425198 Z M19.160815,30.8475343 L19.160815,30.8475343 L19.160815,29.7761663 C19.7199834,29.7201497 20.2665114,29.5743867 20.7793098,29.3445322 C21.1685655,29.5678004 21.5771809,29.755343 22.0002328,29.9049647 C21.1418212,30.4396507 20.1686486,30.762711 19.160815,30.8475343 Z M23.9508358,29.2476008 C22.6290561,29.1385613 21.3744699,28.618578 20.3631102,27.7605655 L21.1172723,27.0064033 C21.9248565,27.6698877 22.9108025,28.079368 23.9508358,28.1831518 L23.9508358,29.2476008 Z M20.225264,22.8880499 C20.225264,20.5365489 22.1315593,18.6302536 24.4830603,18.6302536 C26.8345613,18.6302536 28.7408565,20.5365489 28.7408565,22.8880499 C28.7381954,25.2384865 26.8334969,27.143185 24.4830603,27.1458462 C22.1315593,27.1458462 20.225264,25.2396175 20.225264,22.8880499 Z M25.0152848,29.2476008 L25.0152848,28.1831518 C26.0553181,28.079368 27.041264,27.6698877 27.8488482,27.0064033 L28.6030104,27.7605655 C27.5916507,28.618578 26.337131,29.1385613 25.0152848,29.2476008 Z M29.3556424,27.008 L28.6014802,26.2538378 C29.2648981,25.4461871 29.6743784,24.4602412 29.7782287,23.4202744 L30.8426778,23.4202744 C30.7334387,24.7420541 30.2135218,25.9965738 29.3556424,27.008 Z M29.7782287,22.3558254 C29.6743119,21.3158586 29.2648981,20.3299127 28.6014802,19.522262 L29.3556424,18.7680998 C30.2135218,19.779526 30.7335052,21.0340457 30.8426778,22.3558254 L29.7782287,22.3558254 Z" id="Shape"></path>
                        <path d="M24.4830603,22.3558254 C24.1891393,22.3558254 23.9508358,22.1175218 23.9508358,21.8236008 C23.9508358,21.5296798 24.1891393,21.2913763 24.4830603,21.2913763 C24.7769813,21.2913763 25.0152848,21.5296798 25.0152848,21.8236008 L26.0797339,21.8236008 C26.0769397,21.1494054 25.6509605,20.5495884 25.0152848,20.3248565 L25.0152848,19.6947027 L23.9508358,19.6947027 L23.9508358,20.3248565 C23.1210312,20.6171143 22.6852723,21.5267526 22.9775967,22.3565572 C23.2024615,22.9949605 23.8062037,23.421605 24.4830603,23.4202744 C24.7769813,23.4202744 25.0152848,23.658578 25.0152848,23.952499 C25.0152848,24.24642 24.7769813,24.4847235 24.4830603,24.4847235 C24.1891393,24.4847235 23.9508358,24.24642 23.9508358,23.952499 L22.8863867,23.952499 C22.8891809,24.6266944 23.3151601,25.2265114 23.9508358,25.4512432 L23.9508358,26.0813971 L25.0152848,26.0813971 L25.0152848,25.4512432 C25.8450894,25.1589854 26.2808482,24.2493472 25.9885904,23.4195426 C25.7637256,22.7812058 25.1599834,22.3545613 24.4830603,22.3558254 Z" id="Shape"></path>
                        <path d="M21.290711,0.493638254 C20.440815,0.168648649 19.5385613,0.00212889813 18.6285904,0.00239469195 C17.7183534,0.00359251559 16.8162328,0.172839917 15.9674678,0.501621622 C12.1265364,-0.971376299 7.81877755,0.948158004 6.3457131,4.78902287 C4.87271518,8.62995426 6.79224948,12.9377131 10.6331143,14.4107775 C11.4863368,14.7380291 12.3924491,14.9054137 13.3062786,14.9046843 C14.2175135,14.903817 15.1207651,14.7347692 15.9705946,14.4059875 C19.8123909,15.8750603 24.1176881,13.9516008 25.5867609,10.1098046 C27.0559667,6.26807484 25.1325073,1.96277755 21.290711,0.493638254 Z M19.160815,1.09405405 C20.4825946,1.20309356 21.7371809,1.72307692 22.7485405,2.5810894 L21.9943784,3.33525156 C21.1867942,2.67176715 20.2008482,2.2622869 19.160815,2.15850312 L19.160815,1.09405405 Z M16.1021206,1.59008732 C16.1638586,1.57804574 16.222869,1.55476091 16.276158,1.52143035 C16.8584782,1.29017879 17.4718669,1.14667775 18.0963659,1.09565073 L18.0963659,2.16009979 C17.0563326,2.26388358 16.0703867,2.67336383 15.2628025,3.33684823 L14.5086403,2.5810894 C14.9883742,2.17440333 15.5253222,1.84049896 16.1021206,1.59008732 Z M13.8385696,1.09292308 C14.0929064,1.11361331 14.3457796,1.14913929 14.5959252,1.19936798 C14.3321414,1.3684158 14.0791351,1.55376299 13.8385696,1.75447817 L13.8385696,1.09292308 L13.8385696,1.09292308 Z M13.7560748,3.33365489 L14.510237,4.08781705 C13.8468191,4.89546778 13.4374054,5.88141372 13.3334886,6.92138046 L12.2690395,6.92138046 C12.3782786,5.59960083 12.8981954,4.34508108 13.7560748,3.33365489 Z M12.4585114,11.6261788 C10.1540457,11.1582204 8.66521414,8.9107027 9.13317256,6.60623701 C9.47339709,4.93066112 10.7829356,3.62112266 12.4585114,3.28089813 C10.7505364,5.80051559 10.7505364,9.10662786 12.4585114,11.6261788 Z M12.7741206,1.09405405 L12.7741206,2.15850312 C11.7340873,2.2622869 10.7481414,2.67176715 9.94055717,3.33525156 L9.18639501,2.5810894 C10.1978212,1.72307692 11.452341,1.20309356 12.7741206,1.09405405 Z M8.43382952,3.33365489 L9.18799168,4.08781705 C8.5245738,4.89546778 8.11516008,5.88141372 8.01124324,6.92138046 L6.94679418,6.92138046 C7.05603326,5.59960083 7.5759501,4.34508108 8.43382952,3.33365489 Z M6.94679418,7.98582952 L8.01124324,7.98582952 C8.11516008,9.02579626 8.5245738,10.0117422 9.18799168,10.8193929 L8.43382952,11.5735551 C7.5759501,10.5620624 7.05603326,9.30754262 6.94679418,7.98582952 Z M12.7741206,13.8130894 C11.452341,13.7040499 10.1977547,13.1840665 9.18639501,12.3260541 L9.94055717,11.5718919 C10.7481414,12.2353763 11.7340873,12.6448565 12.7741206,12.7486403 L12.7741206,13.8130894 L12.7741206,13.8130894 Z M12.2690395,7.98582952 L13.3334886,7.98582952 C13.4374054,9.02579626 13.8468191,10.0117422 14.510237,10.8193929 L13.7560748,11.5735551 C12.8981954,10.5620624 12.3782786,9.30754262 12.2690395,7.98582952 Z M13.8385696,13.8141538 L13.8385696,13.1525988 C14.078869,13.3537131 14.3314096,13.539659 14.5948607,13.7093056 C14.3451143,13.7592682 14.0925738,13.794262 13.8385696,13.8141538 Z M18.0963659,13.8130894 C16.7745863,13.7040499 15.52,13.1840665 14.5086403,12.3260541 L15.2628025,11.5718919 C16.0703867,12.2353763 17.0563326,12.6448565 18.0963659,12.7486403 L18.0963659,13.8130894 Z M18.6285904,11.7114012 C16.2770894,11.7114012 14.3707942,9.80510603 14.3707942,7.45360499 C14.3734553,5.1031684 16.2781538,3.19846985 18.6285904,3.19580873 C20.9800915,3.19580873 22.8863867,5.10210395 22.8863867,7.45360499 C22.8863867,9.80510603 20.980158,11.7114012 18.6285904,11.7114012 Z M19.160815,13.8130894 L19.160815,12.7486403 C20.2008482,12.6448565 21.1867942,12.2353763 21.9943784,11.5718919 L22.7485405,12.3260541 C21.7371809,13.1840665 20.4826611,13.7040499 19.160815,13.8130894 Z M23.5011726,11.5734886 L22.7470104,10.8193264 C23.4104283,10.0116757 23.8199085,9.02572973 23.9237588,7.98576299 L24.9882079,7.98576299 C24.8789688,9.30754262 24.359052,10.5620624 23.5011726,11.5734886 Z M23.9237588,6.92138046 C23.819842,5.88141372 23.4104283,4.89546778 22.7470104,4.08781705 L23.5011726,3.33365489 C24.359052,4.34508108 24.8790353,5.59960083 24.9882079,6.92138046 L23.9237588,6.92138046 Z" id="Shape"></path>
                        <path d="M18.6285904,6.92138046 C18.3346694,6.92138046 18.0963659,6.68307692 18.0963659,6.38915593 C18.0963659,6.09523493 18.3346694,5.85693139 18.6285904,5.85693139 C18.9225114,5.85693139 19.160815,6.09523493 19.160815,6.38915593 L20.225264,6.38915593 C20.2224699,5.7149605 19.7964906,5.11514345 19.160815,4.89041164 L19.160815,4.2602578 L18.0963659,4.2602578 L18.0963659,4.89041164 C17.2665613,5.18266944 16.8308025,6.09230769 17.1231268,6.92211227 C17.3479917,7.56051559 17.9517339,7.98716008 18.6285904,7.98582952 C18.9225114,7.98582952 19.160815,8.22413306 19.160815,8.51805405 C19.160815,8.81197505 18.9225114,9.05027859 18.6285904,9.05027859 C18.3346694,9.05027859 18.0963659,8.81197505 18.0963659,8.51805405 L17.0319168,8.51805405 C17.034711,9.19224948 17.4606902,9.79206653 18.0963659,10.0167983 L18.0963659,10.6469522 L19.160815,10.6469522 L19.160815,10.0167983 C19.9906195,9.72454054 20.4263784,8.81490229 20.1340541,7.98509771 C19.9092557,7.34669439 19.3055135,6.9200499 18.6285904,6.92138046 Z" id="Shape"></path>
                    </g>
                </g>
            </g>
        </g>
    </g>
</svg>