<?xml version="1.0" encoding="UTF-8"?>
<svg width="64px" height="64px" viewBox="0 0 64 64" version="1.1" xmlns="http://www.w3.org/2000/svg" xmlns:xlink="http://www.w3.org/1999/xlink">
    <!-- Generator: Sketch 57.1 (83088) - https://sketch.com -->
    <title>Shape</title>
    <desc>Created with Sketch.</desc>
    <g id="Page-1" stroke="none" stroke-width="1" fill="none" fill-rule="evenodd">
        <g id="Bet-Chance-Page-English-1" transform="translate(-1058.000000, -389.000000)" fill="#131313" fill-rule="nonzero">
            <g id="Group-14" transform="translate(455.000000, 176.000000)">
                <g id="Group-11" transform="translate(45.000000, 61.000000)">
                    <g id="Group-18" transform="translate(490.000000, 35.000000)">
                        <g id="Group-11-Copy-2">
                            <g id="pike-copy-2" transform="translate(35.000000, 49.000000)">
                                <g id="Combined-Shape-+-spades-+-spades-copy-+-spades-copy-2-+-Rectangle-3-Mask">
                                    <g id="clover-ace" transform="translate(33.000000, 68.000000)">
                                        <path d="M63.8876322,34.7588046 C63.8876322,25.9744368 56.608,18.7223908 47.6264828,18.5164138 C47.7324138,17.7655172 47.7888736,17.0024828 47.7888736,16.2458851 C47.7888736,7.28643678 40.3203678,0 31.1376552,0 C21.9573333,0 14.4902989,7.28643678 14.4902989,16.2458851 C14.4902989,17.312 14.5978851,18.3771954 14.8082759,19.4197701 C6.49232184,20.3130115 0,27.3728736 0,35.5626667 C0,44.519908 7.47034483,51.8085517 16.6526897,51.8085517 C21.6476322,51.8085517 25.6719018,50.3825813 28.8119478,46.6255238 C27.597687,49.4959667 27.597687,56.006247 20.000809,61.6167324 L20.000809,63.8821149 L44.0715622,63.8821149 L44.0715622,61.6167324 C36.5162008,56.0145913 36.2798605,49.6194134 35.1712124,46.6255238 C38.2855113,49.9119606 42.6370575,51.0022989 47.2386207,51.0022989 C56.418023,51.0022989 63.8876322,43.7171494 63.8876322,34.7588046 Z" id="Shape"></path>
                                    </g>
                                </g>
                            </g>
                        </g>
                    </g>
                </g>
            </g>
        </g>
    </g>
</svg>