<?xml version="1.0" encoding="UTF-8"?>
<svg width="42px" height="64px" viewBox="0 0 42 64" version="1.1" xmlns="http://www.w3.org/2000/svg" xmlns:xlink="http://www.w3.org/1999/xlink">
    <!-- Generator: Sketch 57.1 (83088) - https://sketch.com -->
    <title>pike copy 2</title>
    <desc>Created with Sketch.</desc>
    <defs>
        <path d="M3.19999993,0 L38.8000001,0 C40.5673112,-7.68739003e-16 42,1.43268877 42,3.19999993 L42,60.8000001 C42,62.5673112 40.5673112,64 38.8000001,64 L3.19999993,64 C1.43268877,64 6.60522405e-16,62.5673112 0,60.8000001 L0,3.19999993 C-6.60522405e-16,1.43268877 1.43268877,7.68739003e-16 3.19999993,0 Z" id="path-1"></path>
        <linearGradient x1="71.0625462%" y1="100%" x2="28.9374538%" y2="0%" id="linearGradient-3">
            <stop stop-color="#CCCCCC" offset="0%"></stop>
            <stop stop-color="#FFFFFF" offset="52.9848927%"></stop>
            <stop stop-color="#CCCCCC" offset="100%"></stop>
        </linearGradient>
        <rect id="path-4" x="0.646153846" y="0.64" width="40.7076923" height="62.72" rx="2.55999994"></rect>
        <ellipse id="path-6" cx="40.5461538" cy="78.24" rx="51.8538462" ry="51.36"></ellipse>
        <filter x="-11.1%" y="-16.1%" width="122.2%" height="122.4%" filterUnits="objectBoundingBox" id="filter-7">
            <feOffset dx="0" dy="-5" in="SourceAlpha" result="shadowOffsetOuter1"></feOffset>
            <feGaussianBlur stdDeviation="3" in="shadowOffsetOuter1" result="shadowBlurOuter1"></feGaussianBlur>
            <feComposite in="shadowBlurOuter1" in2="SourceAlpha" operator="out" result="shadowBlurOuter1"></feComposite>
            <feColorMatrix values="0 0 0 0 1   0 0 0 0 1   0 0 0 0 1  0 0 0 0.5 0" type="matrix" in="shadowBlurOuter1"></feColorMatrix>
        </filter>
    </defs>
    <g id="Page-1" stroke="none" stroke-width="1" fill="none" fill-rule="evenodd">
        <g id="Bet-Chance-Page-English-1" transform="translate(-707.000000, -642.000000)">
            <g id="Group-14" transform="translate(455.000000, 176.000000)">
                <g id="Group-11" transform="translate(45.000000, 61.000000)">
                    <g id="Group-16" transform="translate(30.000000, 344.000000)">
                        <g id="Group-16-Copy-2" transform="translate(73.000000, 61.000000)">
                            <g id="Group-15">
                                <g id="pike-copy-2" transform="translate(104.000000, 0.000000)">
                                    <g id="Combined-Shape-+-spades-+-spades-copy-+-spades-copy-2-+-Rectangle-3-Mask">
                                        <mask id="mask-2" fill="white">
                                            <use xlink:href="#path-1"></use>
                                        </mask>
                                        <use id="Mask" fill="#CCCCCC" xlink:href="#path-1"></use>
                                        <mask id="mask-5" fill="white">
                                            <use xlink:href="#path-4"></use>
                                        </mask>
                                        <use id="Mask" fill="url(#linearGradient-3)" xlink:href="#path-4"></use>
                                        <g id="clover-ace" mask="url(#mask-5)" fill="#131313" fill-rule="nonzero">
                                            <g transform="translate(10.661538, 21.760000)" id="Shape">
                                                <path d="M20.6406196,11.1228175 C20.6406196,8.31181977 18.2887385,5.99116506 15.3870175,5.92525241 C15.4212414,5.68496552 15.4394822,5.44079448 15.4394822,5.19868322 C15.4394822,2.33165977 13.0265804,0 10.0598578,0 C7.09390769,0 4.68148117,2.33165977 4.68148117,5.19868322 C4.68148117,5.53984 4.71623979,5.88070253 4.7842122,6.21432644 C2.09751936,6.50016368 0,8.75931954 0,11.3800533 C0,14.2463706 2.41349602,16.5787366 5.38009973,16.5787366 C6.9938504,16.5787366 8.29399906,16.122426 9.30847545,14.9201676 C8.9161758,15.8387093 8.9161758,17.921999 6.46179982,19.7173544 L6.46179982,20.4422768 L14.2385047,20.4422768 L14.2385047,19.7173544 C11.7975418,17.9246692 11.7211857,15.8782123 11.3630071,14.9201676 C12.3691652,15.9718274 13.7750493,16.3207356 15.2617082,16.3207356 C18.2273613,16.3207356 20.6406196,13.9894878 20.6406196,11.1228175 Z"></path>
                                            </g>
                                        </g>
                                        <g id="clover-ace-copy" mask="url(#mask-5)" fill="#131313" fill-rule="nonzero">
                                            <g transform="translate(2.907692, 2.880000)" id="Shape">
                                                <path d="M5.16015491,2.78070437 C5.16015491,2.07795494 4.57218462,1.49779126 3.84675438,1.4813131 C3.85531034,1.42124138 3.85987056,1.36019862 3.85987056,1.2996708 C3.85987056,0.582914943 3.25664509,0 2.51496446,0 C1.77347692,0 1.17037029,0.582914943 1.17037029,1.2996708 C1.17037029,1.38496 1.17905995,1.47017563 1.19605305,1.55358161 C0.524379841,1.62504092 0,2.18982989 0,2.84501333 C0,3.56159264 0.603374005,4.14468414 1.34502493,4.14468414 C1.7484626,4.14468414 2.07349976,4.0306065 2.32711886,3.73004191 C2.22904395,3.95967734 2.22904395,4.48049976 1.61544995,4.9293386 L1.61544995,5.1105692 L3.55962617,5.1105692 L3.55962617,4.9293386 C2.94938545,4.4811673 2.93029642,3.96955307 2.84075177,3.73004191 C3.0922913,3.99295685 3.44376233,4.08018391 3.81542706,4.08018391 C4.55684032,4.08018391 5.16015491,3.49737195 5.16015491,2.78070437 Z"></path>
                                            </g>
                                        </g>
                                        <g id="clover-ace-copy-2" mask="url(#mask-5)" fill="#131313" fill-rule="nonzero">
                                            <g transform="translate(36.507692, 58.560000) rotate(-180.000000) translate(-36.507692, -58.560000) translate(33.923077, 56.000000)" id="Shape">
                                                <path d="M5.16015491,2.78070437 C5.16015491,2.07795494 4.57218462,1.49779126 3.84675438,1.4813131 C3.85531034,1.42124138 3.85987056,1.36019862 3.85987056,1.2996708 C3.85987056,0.582914943 3.25664509,0 2.51496446,0 C1.77347692,0 1.17037029,0.582914943 1.17037029,1.2996708 C1.17037029,1.38496 1.17905995,1.47017563 1.19605305,1.55358161 C0.524379841,1.62504092 0,2.18982989 0,2.84501333 C0,3.56159264 0.603374005,4.14468414 1.34502493,4.14468414 C1.7484626,4.14468414 2.07349976,4.0306065 2.32711886,3.73004191 C2.22904395,3.95967734 2.22904395,4.48049976 1.61544995,4.9293386 L1.61544995,5.1105692 L3.55962617,5.1105692 L3.55962617,4.9293386 C2.94938545,4.4811673 2.93029642,3.96955307 2.84075177,3.73004191 C3.0922913,3.99295685 3.44376233,4.08018391 3.81542706,4.08018391 C4.55684032,4.08018391 5.16015491,3.49737195 5.16015491,2.78070437 Z"></path>
                                            </g>
                                        </g>
                                        <g id="Oval" mask="url(#mask-5)">
                                            <use fill="black" fill-opacity="1" filter="url(#filter-7)" xlink:href="#path-6"></use>
                                            <use fill-opacity="0" fill="#D8D8D8" fill-rule="evenodd" xlink:href="#path-6"></use>
                                        </g>
                                    </g>
                                </g>
                            </g>
                        </g>
                    </g>
                </g>
            </g>
        </g>
    </g>
</svg>