<?xml version="1.0" encoding="UTF-8"?>
<svg width="20px" height="20px" viewBox="0 0 20 20" version="1.1" xmlns="http://www.w3.org/2000/svg" xmlns:xlink="http://www.w3.org/1999/xlink">
    <!-- Generator: Sketch 57.1 (83088) - https://sketch.com -->
    <title>Group 23</title>
    <desc>Created with Sketch.</desc>
    <g id="Page-1" stroke="none" stroke-width="1" fill="none" fill-rule="evenodd">
        <g id="Bet-Chance-Page-English-1" transform="translate(-1015.000000, -923.000000)">
            <g id="Group-14" transform="translate(455.000000, 176.000000)">
                <g id="Group-42-Copy-66" transform="translate(545.000000, 742.000000)">
                    <g id="Group-23" transform="translate(15.000000, 5.000000)">
                        <circle id="Oval-2" fill="#FFFFFF" cx="10" cy="10" r="10"></circle>
                        <g id="clover-ace" transform="translate(4.000000, 4.000000)" fill="#131313" fill-rule="nonzero">
                            <path d="M11.978931,6.51727586 C11.978931,4.8702069 10.614,3.51044828 8.92996552,3.47182759 C8.94982759,3.33103448 8.96041379,3.18796552 8.96041379,3.04610345 C8.96041379,1.3662069 7.56006897,0 5.83831034,0 C4.117,0 2.71693103,1.3662069 2.71693103,3.04610345 C2.71693103,3.246 2.73710345,3.44572414 2.77655172,3.6412069 C1.21731034,3.80868966 0,5.13241379 0,6.668 C0,8.34748276 1.40068966,9.71410345 3.12237931,9.71410345 C4.05893103,9.71410345 4.81348159,9.44673399 5.40224022,8.74228572 C5.17456631,9.28049376 5.17456631,10.5011713 3.75015168,11.5531373 L3.75015168,11.9778966 L8.2634179,11.9778966 L8.2634179,11.5531373 C6.84678765,10.5027359 6.80247384,9.30364002 6.59460233,8.74228572 C7.17853337,9.35849261 7.99444828,9.56293103 8.85724138,9.56293103 C10.5783793,9.56293103 11.978931,8.19696552 11.978931,6.51727586 Z" id="Shape"></path>
                        </g>
                    </g>
                </g>
            </g>
        </g>
    </g>
</svg>