<?xml version="1.0" encoding="UTF-8"?>
<svg width="20px" height="20px" viewBox="0 0 20 20" version="1.1" xmlns="http://www.w3.org/2000/svg" xmlns:xlink="http://www.w3.org/1999/xlink">
    <!-- Generator: Sketch 57.1 (83088) - https://sketch.com -->
    <title>Group 23</title>
    <desc>Created with Sketch.</desc>
    <g id="Page-1" stroke="none" stroke-width="1" fill="none" fill-rule="evenodd">
        <g id="Bet-Chance-Page-English-1" transform="translate(-765.000000, -923.000000)">
            <g id="Group-14" transform="translate(455.000000, 176.000000)">
                <g id="Group-42-Copy-65" transform="translate(295.000000, 742.000000)">
                    <g id="Group-23" transform="translate(15.000000, 5.000000)">
                        <circle id="Oval-2" fill="#FFFFFF" cx="10" cy="10" r="10"></circle>
                        <g id="diamond-2" transform="translate(5.700012, 4.000000)" fill="#EC0000" fill-rule="nonzero">
                            <path d="M8.48798011,5.58747541 L4.37150284,0.0792786885 C4.3340625,0.0291147541 4.27388352,-0.00413114754 4.21233239,0.000590163934 C4.14999716,0.00137704918 4.09158239,0.0318688525 4.05512216,0.0830163934 L0.134667614,5.59121311 C0.08625,5.65908197 0.0858579545,5.75016393 0.133491477,5.81822951 L4.24996875,11.7198689 C4.28682102,11.7725902 4.34660795,11.8038689 4.41051136,11.8038689 C4.41129545,11.8038689 4.41207955,11.8038689 4.41286364,11.8038689 C4.47755114,11.803082 4.53773011,11.7702295 4.57360227,11.7163279 L8.49405682,5.81468852 C8.5405142,5.74504918 8.53796591,5.65396721 8.48798011,5.58747541 Z" id="Shape"></path>
                        </g>
                    </g>
                </g>
            </g>
        </g>
    </g>
</svg>