<?xml version="1.0" encoding="UTF-8"?>
<svg width="42px" height="64px" viewBox="0 0 42 64" version="1.1" xmlns="http://www.w3.org/2000/svg" xmlns:xlink="http://www.w3.org/1999/xlink">
    <!-- Generator: Sketch 57.1 (83088) - https://sketch.com -->
    <title>pike copy 3</title>
    <desc>Created with Sketch.</desc>
    <defs>
        <path d="M3.19999993,0 L38.8000001,0 C40.5673112,-7.68739003e-16 42,1.43268877 42,3.19999993 L42,60.8000001 C42,62.5673112 40.5673112,64 38.8000001,64 L3.19999993,64 C1.43268877,64 6.60522405e-16,62.5673112 0,60.8000001 L0,3.19999993 C-6.60522405e-16,1.43268877 1.43268877,7.68739003e-16 3.19999993,0 Z" id="path-1"></path>
        <linearGradient x1="71.0625462%" y1="100%" x2="28.9374538%" y2="0%" id="linearGradient-3">
            <stop stop-color="#CCCCCC" offset="0%"></stop>
            <stop stop-color="#FFFFFF" offset="52.9848927%"></stop>
            <stop stop-color="#CCCCCC" offset="100%"></stop>
        </linearGradient>
        <rect id="path-4" x="0.646153846" y="0.64" width="40.7076923" height="62.72" rx="2.55999994"></rect>
        <ellipse id="path-6" cx="40.5461538" cy="78.24" rx="51.8538462" ry="51.36"></ellipse>
        <filter x="-11.1%" y="-16.1%" width="122.2%" height="122.4%" filterUnits="objectBoundingBox" id="filter-7">
            <feOffset dx="0" dy="-5" in="SourceAlpha" result="shadowOffsetOuter1"></feOffset>
            <feGaussianBlur stdDeviation="3" in="shadowOffsetOuter1" result="shadowBlurOuter1"></feGaussianBlur>
            <feComposite in="shadowBlurOuter1" in2="SourceAlpha" operator="out" result="shadowBlurOuter1"></feComposite>
            <feColorMatrix values="0 0 0 0 1   0 0 0 0 1   0 0 0 0 1  0 0 0 0.5 0" type="matrix" in="shadowBlurOuter1"></feColorMatrix>
        </filter>
    </defs>
    <g id="Page-1" stroke="none" stroke-width="1" fill="none" fill-rule="evenodd">
        <g id="Bet-Chance-Page-English-1" transform="translate(-655.000000, -642.000000)">
            <g id="Group-14" transform="translate(455.000000, 176.000000)">
                <g id="Group-11" transform="translate(45.000000, 61.000000)">
                    <g id="Group-16" transform="translate(30.000000, 344.000000)">
                        <g id="Group-16-Copy-2" transform="translate(73.000000, 61.000000)">
                            <g id="Group-15">
                                <g id="pike-copy-3" transform="translate(52.000000, 0.000000)">
                                    <g id="Combined-Shape-+-spades-+-spades-copy-+-spades-copy-2-+-Rectangle-3-Mask">
                                        <mask id="mask-2" fill="white">
                                            <use xlink:href="#path-1"></use>
                                        </mask>
                                        <use id="Mask" fill="#CCCCCC" xlink:href="#path-1"></use>
                                        <mask id="mask-5" fill="white">
                                            <use xlink:href="#path-4"></use>
                                        </mask>
                                        <use id="Mask" fill="url(#linearGradient-3)" xlink:href="#path-4"></use>
                                        <g id="diamond-2" mask="url(#mask-5)" fill="#EC0000" fill-rule="nonzero">
                                            <g transform="translate(13.569231, 21.760000)" id="Shape">
                                                <path d="M14.6254427,9.53595803 L7.53243566,0.135302295 C7.46792308,0.0496891803 7.36423007,-0.00705049181 7.25817273,0.00100721311 C7.15076434,0.00235016393 7.05011119,0.0543895082 6.98728741,0.141681311 L0.232042657,9.54233705 C0.148615385,9.65816656 0.14793986,9.81361311 0.230016084,9.92977836 L7.32302308,20.0019095 C7.38652238,20.0918872 7.48953986,20.1452695 7.59965035,20.1452695 C7.6010014,20.1452695 7.60235245,20.1452695 7.6037035,20.1452695 C7.71516503,20.1439266 7.81885804,20.0878584 7.88066853,19.9958662 L14.6359133,9.92373508 C14.7159629,9.80488393 14.711572,9.64943738 14.6254427,9.53595803 Z"></path>
                                            </g>
                                        </g>
                                        <g id="diamond-2" mask="url(#mask-5)" fill="#EC0000" fill-rule="nonzero">
                                            <g transform="translate(3.392308, 3.200000)" id="Shape">
                                                <path d="M3.65636066,2.38398951 L1.88310892,0.0338255738 C1.86698077,0.0124222951 1.84105752,-0.00176262295 1.81454318,0.000251803277 C1.78769108,0.000587540982 1.7625278,0.013597377 1.74682185,0.0354203279 L0.0580106643,2.38558426 C0.0371538462,2.41454164 0.036984965,2.45340328 0.057504021,2.48244459 L1.83075577,5.00047738 C1.84663059,5.0229718 1.87238497,5.03631738 1.89991259,5.03631738 C1.90025035,5.03631738 1.90058811,5.03631738 1.90092587,5.03631738 C1.92879126,5.03598164 1.95471451,5.02196459 1.97016713,4.99896656 L3.65897832,2.48093377 C3.67899073,2.45122098 3.67789301,2.41235934 3.65636066,2.38398951 Z"></path>
                                            </g>
                                        </g>
                                        <g id="diamond-2-copy" mask="url(#mask-5)" fill="#EC0000" fill-rule="nonzero">
                                            <g transform="translate(34.892308, 55.680000)" id="Shape">
                                                <path d="M3.65636066,2.38398951 L1.88310892,0.0338255738 C1.86698077,0.0124222951 1.84105752,-0.00176262295 1.81454318,0.000251803277 C1.78769108,0.000587540982 1.7625278,0.013597377 1.74682185,0.0354203279 L0.0580106643,2.38558426 C0.0371538462,2.41454164 0.036984965,2.45340328 0.057504021,2.48244459 L1.83075577,5.00047738 C1.84663059,5.0229718 1.87238497,5.03631738 1.89991259,5.03631738 C1.90025035,5.03631738 1.90058811,5.03631738 1.90092587,5.03631738 C1.92879126,5.03598164 1.95471451,5.02196459 1.97016713,4.99896656 L3.65897832,2.48093377 C3.67899073,2.45122098 3.67789301,2.41235934 3.65636066,2.38398951 Z"></path>
                                            </g>
                                        </g>
                                        <g id="Oval" mask="url(#mask-5)">
                                            <use fill="black" fill-opacity="1" filter="url(#filter-7)" xlink:href="#path-6"></use>
                                            <use fill-opacity="0" fill="#D8D8D8" fill-rule="evenodd" xlink:href="#path-6"></use>
                                        </g>
                                    </g>
                                </g>
                            </g>
                        </g>
                    </g>
                </g>
            </g>
        </g>
    </g>
</svg>