<?xml version="1.0" encoding="UTF-8"?>
<svg width="46px" height="63px" viewBox="0 0 46 63" version="1.1" xmlns="http://www.w3.org/2000/svg" xmlns:xlink="http://www.w3.org/1999/xlink">
    <!-- Generator: Sketch 57.1 (83088) - https://sketch.com -->
    <title>Shape</title>
    <desc>Created with Sketch.</desc>
    <g id="Page-1" stroke="none" stroke-width="1" fill="none" fill-rule="evenodd">
        <g id="Bet-Chance-Page-English-1" transform="translate(-867.000000, -389.000000)" fill="#EC0000" fill-rule="nonzero">
            <g id="Group-14" transform="translate(455.000000, 176.000000)">
                <g id="Group-11" transform="translate(45.000000, 61.000000)">
                    <g id="Group-13" transform="translate(305.000000, 35.000000)">
                        <g id="pike-copy-3" transform="translate(20.000000, 49.000000)">
                            <g id="Combined-Shape-+-spades-+-spades-copy-+-spades-copy-2-+-Rectangle-3-Mask">
                                <g id="diamond-2" transform="translate(42.000000, 68.000000)">
                                    <path d="M45.2692273,29.7998689 L23.3146818,0.422819672 C23.115,0.155278689 22.7940455,-0.0220327869 22.4657727,0.00314754098 C22.1333182,0.0073442623 21.8217727,0.169967213 21.6273182,0.442754098 L0.718227273,29.8198033 C0.46,30.1817705 0.457909091,30.667541 0.711954545,31.0305574 L22.6665,62.5059672 C22.8630455,62.7871475 23.1819091,62.9539672 23.5227273,62.9539672 C23.5269091,62.9539672 23.5310909,62.9539672 23.5352727,62.9539672 C23.8802727,62.9497705 24.2012273,62.7745574 24.3925455,62.487082 L45.3016364,31.0116721 C45.5494091,30.6402623 45.5358182,30.1544918 45.2692273,29.7998689 Z" id="Shape"></path>
                                </g>
                            </g>
                        </g>
                    </g>
                </g>
            </g>
        </g>
    </g>
</svg>