<?xml version="1.0" encoding="UTF-8"?>
<svg width="32px" height="33px" viewBox="0 0 32 33" version="1.1" xmlns="http://www.w3.org/2000/svg" xmlns:xlink="http://www.w3.org/1999/xlink">
    <!-- Generator: Sketch 57.1 (83088) - https://sketch.com -->
    <title>Group 21</title>
    <desc>Created with Sketch.</desc>
    <g id="Page-1" stroke="none" stroke-width="1" fill="none" fill-rule="evenodd">
        <g id="Bet-Chance-Page-English-2" transform="translate(-1272.000000, -76.000000)" fill="#FFFFFF" fill-rule="nonzero">
            <g id="Group-34" transform="translate(0.000000, 56.000000)">
                <g id="Group-8-Copy-8" transform="translate(1224.000000, 5.000000)">
                    <g id="Group-21" transform="translate(48.000000, 15.000000)">
                        <g id="baseball_icon" transform="translate(0.063938, 0.961053)">
                            <path d="M28.9104364,6.85035928 C26.5034393,3.36439749 22.883062,1.02459558 18.7162783,0.261897717 C17.767152,0.0881278983 16.8005,0 15.8432945,0 C8.19385378,0 1.64045755,5.46989604 0.260893316,13.0061365 C-1.31381605,21.6079911 4.40319061,29.8872902 13.004865,31.4619083 C13.9536184,31.6355538 14.9202704,31.723806 15.8777245,31.723806 C15.8782217,31.723806 15.8785946,31.723806 15.8789675,31.723806 C23.5277867,31.723806 30.0805614,26.2541586 31.4601257,18.7176695 C32.2230561,14.5506742 31.3175579,10.3360725 28.9104364,6.85035928 Z M1.85026965,13.2971201 C2.35540966,10.5376852 3.63292666,8.08688443 5.43435242,6.15155104 C5.8043824,6.54856163 6.14880735,6.96371985 6.46775156,7.39441543 L5.81034862,8.03244153 C5.49016144,8.3431887 5.48257937,8.85467855 5.79332003,9.17487243 C5.95167347,9.33807685 6.16223134,9.4201141 6.3731621,9.4201141 C6.57588931,9.4201141 6.77886511,9.34429179 6.93572699,9.19190138 L7.36964525,8.77077681 C7.65478088,9.2667293 7.90933963,9.77797055 8.13170565,10.3020146 L7.20582278,10.7008897 C6.79601799,10.877394 6.60696338,11.3528372 6.78358837,11.7626506 C6.91521811,12.0681772 7.21303196,12.2510208 7.52588566,12.2510208 C7.63253185,12.2510208 7.74104249,12.2297657 7.84520276,12.1848939 L8.67773914,11.8261673 C8.83944858,12.3735795 8.96797091,12.9309357 9.06268467,13.4952525 L8.29005909,13.5711991 C7.84594854,13.614828 7.52128669,14.0100984 7.56503898,14.4542183 C7.60605675,14.8714896 7.95744229,15.1832312 8.36811714,15.1832312 C8.39446795,15.1832312 8.42119165,15.1819882 8.44803964,15.1792536 L9.23893677,15.1015668 C9.26715202,15.6387865 9.26590906,16.1796109 9.23259766,16.7220512 L8.44803964,16.6449859 C8.00479916,16.601357 7.60866697,16.9259013 7.56503898,17.3700212 C7.52141099,17.814141 7.84607283,18.2094114 8.29005909,18.2530403 L9.04230008,18.3268739 C9.03645815,18.3600617 9.0317349,18.3933738 9.02564438,18.4265616 C8.9284447,18.9565719 8.80166251,19.4763898 8.64865381,19.985518 L7.84520276,19.6393456 C7.43527368,19.4627169 6.95996477,19.6517755 6.78346407,20.0615889 C6.60683908,20.4714023 6.7958937,20.9467211 7.20569848,21.1233498 L8.09478966,21.5064389 C7.87130497,22.0261325 7.6177406,22.5311588 7.33409652,23.0191562 L6.9356027,22.6323381 C6.61553982,22.3215909 6.10406069,22.3291732 5.79319573,22.6493671 C5.48245507,22.9695609 5.49003715,23.4810508 5.81022432,23.791798 L6.42611231,24.3895512 C6.1204678,24.7971272 5.7910827,25.1886687 5.44031864,25.5641755 C2.48355911,22.3803843 1.00952971,17.8899633 1.85026965,13.2971201 Z M15.8778488,30.1079207 C15.0175944,30.1079207 14.1488878,30.028618 13.2958425,29.8724986 C10.7319835,29.4031461 8.45400586,28.2700376 6.60559612,26.6837355 C6.95474432,26.3110874 7.28537239,25.924518 7.59449719,25.5234055 L8.16501705,26.077157 C8.32200323,26.2295474 8.52485473,26.3053697 8.72758194,26.3053697 C8.9383884,26.3053697 9.14894627,26.2233324 9.30742401,26.060128 C9.61816467,25.7399341 9.6105826,25.2284443 9.29039542,24.9176971 L8.52460614,24.1743899 C8.92471581,23.5250526 9.27734431,22.8479966 9.57913564,22.1458323 L10.2193857,22.4216515 C10.323546,22.4665234 10.4320566,22.4877785 10.5387028,22.4877785 C10.8515565,22.4877785 11.1493703,22.3049349 11.2810001,21.9994083 C11.4576251,21.5895949 11.2685705,21.114276 10.8587657,20.9376473 L10.1415762,20.6286403 C10.3365971,20.0060273 10.4958206,19.3686227 10.615145,18.7176695 C10.6293148,18.6402313 10.6409986,18.5626688 10.6539254,18.4851063 L11.5555705,18.5737314 C11.5824185,18.5763417 11.6090179,18.577709 11.635493,18.577709 C12.0461679,18.577709 12.3975534,18.2659674 12.4385712,17.8486961 C12.4821992,17.4045763 12.1575373,17.0093059 11.7135511,16.965677 L10.8409913,16.880035 C10.883252,16.2316921 10.8853651,15.5852137 10.8486977,14.9434587 L11.7135511,14.8585625 C12.1576616,14.8149336 12.4823235,14.4196632 12.4385712,13.9755434 C12.3949432,13.5314235 12.000054,13.2060091 11.5555705,13.2505081 L10.6758016,13.3368958 C10.5584659,12.6067642 10.3885529,11.8873224 10.1710345,11.1827964 L10.8587657,10.8864679 C11.2685705,10.7099635 11.4576251,10.2345203 11.2810001,9.82470692 C11.1044994,9.41489355 10.6290662,9.22595927 10.2192614,9.40246366 L9.61617593,9.6623726 C9.31624904,8.95685222 8.96349625,8.27246264 8.56177072,7.61380293 L9.29039542,6.90654237 C9.6105826,6.5957952 9.61816467,6.08430535 9.30742401,5.76411146 C8.99668335,5.44391758 8.48532852,5.43633534 8.16501705,5.74708252 L7.63775229,6.25882096 C7.31507919,5.83533471 6.96841691,5.42676433 6.60074856,5.03335841 C9.10457251,2.88994871 12.3462191,1.6158853 15.8434188,1.6158853 C16.703176,1.6158853 17.5720069,1.69506368 18.4254251,1.85130736 C20.9133391,2.30673841 23.1838589,3.38888437 25.0620998,4.98264447 C24.6762842,5.39158775 24.3134634,5.81693848 23.9768691,6.25882096 L23.4496043,5.74708252 C23.1295415,5.43621105 22.6180623,5.44379328 22.3071974,5.76411146 C21.9964567,6.08430535 22.0040388,6.5957952 22.324226,6.90654237 L23.0528507,7.61380293 C22.6510008,8.27258694 22.2982481,8.95685222 21.9984455,9.6623726 L21.39536,9.40246366 C20.9854309,9.22571067 20.510122,9.41489355 20.3336213,9.82470692 C20.1569963,10.2345203 20.3460509,10.7098392 20.7558557,10.8864679 L21.4435869,11.1827964 C21.2260685,11.8873224 21.0561555,12.6067642 20.9388198,13.3368958 L20.0589266,13.2505081 C19.616059,13.2067549 19.2195539,13.5314235 19.1759259,13.9755434 C19.1322979,14.4196632 19.4569597,14.8149336 19.900946,14.8585625 L20.7657994,14.9434587 C20.729132,15.5852137 20.731245,16.2316921 20.7735058,16.880035 L19.9010703,16.965677 C19.4569597,17.0093059 19.1322979,17.4045763 19.1760502,17.8486961 C19.217068,18.2659674 19.5684535,18.577709 19.9791284,18.577709 C20.0054792,18.577709 20.0322029,18.576466 20.0590509,18.5737314 L20.960696,18.4852306 C20.9737471,18.5627931 20.9853066,18.6403556 20.9996007,18.7179181 C21.1189251,19.3688713 21.2781486,20.0062759 21.4731694,20.6287646 L20.75598,20.9377716 C20.3461752,21.114276 20.1571206,21.5897192 20.3337456,21.9995326 C20.4653753,22.3050592 20.7631892,22.4879028 21.0760429,22.4879028 C21.1826891,22.4879028 21.2911997,22.4666477 21.39536,22.4217758 L22.03561,22.1459566 C22.3374014,22.8479966 22.6901542,23.5250526 23.0901395,24.1743899 L22.324226,24.9176971 C22.0040388,25.2284443 21.9964567,25.7399341 22.3071974,26.060128 C22.4655508,26.2233324 22.6761087,26.3053697 22.8870395,26.3053697 C23.0897667,26.3053697 23.2927425,26.2295474 23.4496043,26.077157 L24.0201242,25.5234055 C24.3450346,25.944903 24.6930642,26.3507388 25.0620998,26.7407886 C22.5662308,28.8539937 19.3478276,30.1079207 15.8778488,30.1079207 Z M29.8708736,18.4266859 C29.3607618,21.2130936 28.0629845,23.6844037 26.2338407,25.6285623 C25.8603304,25.2336648 25.5111822,24.8203711 25.1881362,24.3895512 L25.8040242,23.791798 C26.1242114,23.4810508 26.1317934,22.9695609 25.8210528,22.6493671 C25.5104364,22.3291732 24.9989573,22.3215909 24.6786458,22.6323381 L24.280152,23.0191562 C23.9965079,22.5311588 23.7428192,22.0261325 23.5194588,21.5064389 L24.40855,21.1233498 C24.8183548,20.9468454 25.0074094,20.4714023 24.8307844,20.0615889 C24.6542837,19.6518998 24.1788505,19.4629655 23.7690457,19.6393456 L22.9655947,19.985518 C22.812586,19.4765141 22.6858038,18.9566962 22.5886041,18.4268102 C22.5825136,18.3934981 22.5777903,18.360186 22.5719484,18.3269982 L23.3243137,18.2531646 C23.7684243,18.2095357 24.0930861,17.8142653 24.0493338,17.3701455 C24.0057058,16.9260256 23.6103194,16.6009841 23.1663332,16.6451102 L22.3817751,16.7221755 C22.3484637,16.1798595 22.3472208,15.6390351 22.3755603,15.1016911 L23.1664575,15.1793779 C23.1933054,15.1819882 23.2199048,15.1833555 23.24638,15.1833555 C23.6570548,15.1833555 24.0084403,14.8716139 24.0494581,14.4543426 C24.0930861,14.0102227 23.7684243,13.6149523 23.324438,13.5713234 L22.5518124,13.4953768 C22.6466505,12.93106 22.7750485,12.3737038 22.936758,11.8262916 L23.7692943,12.1850181 C23.8734546,12.22989 23.9819652,12.2511451 24.0886114,12.2511451 C24.4014651,12.2511451 24.699279,12.0683015 24.8309087,11.7627749 C25.0075337,11.3529615 24.8184791,10.8776426 24.4086743,10.7010139 L23.4827914,10.3021389 C23.7051575,9.77809485 23.9597162,9.2668536 24.2448518,8.77090111 L24.6787701,9.19202568 C24.8357563,9.34441609 25.0386078,9.4202384 25.241335,9.4202384 C25.4521415,9.4202384 25.6626993,9.33820115 25.8211771,9.17499673 C26.1319177,8.85480285 26.1243357,8.343313 25.8041485,8.03256583 L25.1467455,7.39453973 C25.4806053,6.94370773 25.8426803,6.51015328 26.2324734,6.09648664 C26.7185961,6.61493722 27.1695429,7.17303914 27.5808393,7.76880362 C29.7425999,10.8991463 30.5558704,14.6842955 29.8708736,18.4266859 Z" id="Shape"></path>
                        </g>
                    </g>
                </g>
            </g>
        </g>
    </g>
</svg>