<?xml version="1.0" encoding="UTF-8"?>
<svg width="34px" height="26px" viewBox="0 0 34 26" version="1.1" xmlns="http://www.w3.org/2000/svg" xmlns:xlink="http://www.w3.org/1999/xlink">
    <!-- Generator: Sketch 57.1 (83088) - https://sketch.com -->
    <title>hockey_icon</title>
    <desc>Created with Sketch.</desc>
    <g id="Page-1" stroke="none" stroke-width="1" fill="none" fill-rule="evenodd">
        <g id="Bet-Chance-Page-English-2" transform="translate(-1404.000000, -82.000000)" fill="#FFFFFF" fill-rule="nonzero" stroke="#FFFFFF" stroke-width="0.5">
            <g id="Group-34" transform="translate(0.000000, 56.000000)">
                <g id="Group-8-Copy-9" transform="translate(1357.000000, 5.000000)">
                    <g id="hockey_icon" transform="translate(48.000000, 22.000000)">
                        <g id="Group">
                            <path d="M27.1595219,2.43107368 C24.1681594,0.873157895 20.2049402,0.0151578947 16,0.0151578947 C11.7950598,0.0151578947 7.83184064,0.873157895 4.84047809,2.43107368 C1.71901195,4.05669474 0,6.26450526 0,8.64757895 L0,15.3524211 C0,17.7354947 1.71901195,19.9432421 4.84047809,21.5689263 C7.83184064,23.1268421 11.7950598,23.9848421 16,23.9848421 C20.2049402,23.9848421 24.1681594,23.1268421 27.1595219,21.5689263 C30.280988,19.9433053 32,17.7355579 32,15.3524211 L32,8.64757895 C32,6.26450526 30.280988,4.05669474 27.1595219,2.43107368 Z M5.4336255,3.54915789 C8.24541833,2.08484211 11.9979602,1.27831579 16,1.27831579 C20.0020398,1.27831579 23.7545817,2.08484211 26.5663745,3.54915789 C29.2481912,4.94589474 30.7250996,6.75656842 30.7250996,8.64757895 C30.7250996,10.5385895 29.2481912,12.3492632 26.5663745,13.746 C23.7545817,15.2103158 20.0020398,16.0168421 16,16.0168421 C11.9979602,16.0168421 8.24541833,15.2103158 5.4336255,13.746 C2.75180876,12.3492632 1.2749004,10.5385895 1.2749004,8.64757895 C1.2749004,6.75656842 2.75180876,4.94589474 5.4336255,3.54915789 Z M30.7250996,12.0720632 L30.7250996,15.3524211 C30.7250996,17.2434316 29.2481912,19.0541053 26.5663745,20.4508421 C23.7545817,21.9151579 20.0020398,22.7216842 16,22.7216842 C11.9979602,22.7216842 8.24541833,21.9151579 5.4336255,20.4508421 C2.75180876,19.0541053 1.2749004,17.2434316 1.2749004,15.3524211 L1.2749004,12.0720632 L1.2749004,12.0711789 C2.09434263,13.1118316 3.2952988,14.0593895 4.84047809,14.8640842 C7.83184064,16.422 11.7950598,17.28 16,17.28 C20.2049402,17.28 24.1681594,16.422 27.1595219,14.8640842 C28.7047012,14.0593263 29.9055936,13.1118316 30.7250996,12.0711789 L30.7250996,12.0720632 Z" id="Shape"></path>
                            <path d="M7.20363347,5.40416842 C7.29440637,5.40416842 7.38670916,5.38484211 7.47435857,5.34410526 C8.16535458,5.02231579 8.94667729,4.74025263 9.7965259,4.50587368 C10.1356494,4.41233684 10.3340876,4.06402105 10.2396175,3.72802105 C10.1452112,3.39208421 9.79384861,3.19541053 9.45453386,3.28901053 C8.53615936,3.5424 7.68745817,3.84922105 6.93207968,4.20088421 C6.61348207,4.34930526 6.47655777,4.72547368 6.62629482,5.04113684 C6.73478884,5.26995789 6.96420717,5.40416842 7.20363347,5.40416842 Z" id="Shape"></path>
                            <path d="M7.05778486,13.152 C9.45695618,14.2385684 12.6327331,14.8370526 16,14.8370526 C16.3520637,14.8370526 16.6374502,14.5542316 16.6374502,14.2054737 C16.6374502,13.8567158 16.3520637,13.5738947 16,13.5738947 C9.04082869,13.5738947 4.3660239,11.0266737 4.3660239,8.64757895 C4.3660239,8.16132632 4.55145817,7.674 4.91722709,7.19917895 C5.13083665,6.92191579 5.0770996,6.52553684 4.79725896,6.31389474 C4.51741833,6.10231579 4.11741833,6.15543158 3.90374502,6.43275789 C3.3645259,7.13273684 3.09105976,7.87793684 3.09105976,8.64751579 C3.09105976,10.3937684 4.4998247,11.9934316 7.05778486,13.152 Z" id="Shape"></path>
                        </g>
                    </g>
                </g>
            </g>
        </g>
    </g>
</svg>