<?xml version="1.0" encoding="UTF-8"?>
<svg width="30px" height="25px" viewBox="0 0 30 25" version="1.1" xmlns="http://www.w3.org/2000/svg" xmlns:xlink="http://www.w3.org/1999/xlink">
    <!-- Generator: Sketch 57.1 (83088) - https://sketch.com -->
    <title>lotto_icon</title>
    <desc>Created with Sketch.</desc>
    <g id="Page-1" stroke="none" stroke-width="1" fill="none" fill-rule="evenodd">
        <g id="Bet-Chance-Page-English-2" transform="translate(-1139.000000, -79.000000)">
            <g id="Group-34" transform="translate(0.000000, 56.000000)">
                <g id="Group-8-Copy-7" transform="translate(1091.000000, 5.000000)">
                    <g id="lotto_icon" transform="translate(47.000000, 14.000000)">
                        <polygon id="Rectangle-13" opacity="0.372154018" points="0 0 32 0 32 32 0 32"></polygon>
                        <g id="Group-32" transform="translate(2.000000, 5.000000)">
                            <path d="M17.5,0 C21.2209015,0 24.2637288,2.93508394 24.486884,6.64011998 C23.2382869,5.79814858 21.738297,5.30769231 20.125,5.30769231 C19.5594146,5.30769231 19.0077551,5.36797159 18.4759642,5.48252217 C16.9929868,3.73009688 14.9532828,2.47269137 12.6339809,1.98860991 C13.8930104,0.758119821 15.6089333,0 17.5,0 Z" id="Combined-Shape" stroke="#FFFFFF" stroke-width="1.3125"></path>
                            <path d="M20.125,5.30769231 C24.4742424,5.30769231 28,8.87219449 28,13.2692308 C28,17.666267 24.4742424,21.2307692 20.125,21.2307692 C19.0585864,21.2307692 18.0416812,21.0164688 17.1141197,20.6281408 C19.4851398,18.6830071 21,15.7126626 21,12.3846154 C21,9.74940002 20.0502138,7.33845684 18.4778465,5.48258649 C19.0083681,5.36790463 19.5597288,5.30769231 20.125,5.30769231 Z" id="Combined-Shape" stroke="#FFFFFF" stroke-width="1.3125"></path>
                            <ellipse id="Oval-4" stroke="#FFFFFF" stroke-width="1.3125" cx="10.5" cy="12.3846154" rx="10.5" ry="10.6153846"></ellipse>
                            <path d="M4.375,14.2647894 L5.50136062,14.1266337 C5.53724975,14.4169017 5.63387285,14.638786 5.79123284,14.7922931 C5.94859284,14.9458003 6.13907839,15.0225527 6.36269522,15.0225527 C6.60287626,15.0225527 6.80509462,14.9304498 6.96935637,14.7462412 C7.13361811,14.5620326 7.21574775,14.3136339 7.21574775,14.0010375 C7.21574775,13.7051874 7.13706894,13.4707436 6.97970894,13.2976992 C6.82234895,13.1246548 6.63048307,13.0381339 6.40410554,13.0381339 C6.25502765,13.0381339 6.07696507,13.0674394 5.86991245,13.1260512 L5.99828443,12.1673341 C6.31300441,12.1757072 6.55318185,12.10663 6.71882395,11.9601005 C6.88446604,11.8135709 6.96728585,11.6188989 6.96728585,11.3760785 C6.96728585,11.1695416 6.90655133,11.0048728 6.78508045,10.8820671 C6.66360958,10.7592613 6.50211096,10.6978594 6.30057974,10.6978594 C6.10180923,10.6978594 5.93202863,10.7676343 5.79123284,10.9071863 C5.65043706,11.0467382 5.5648566,11.250481 5.53448888,11.5184208 L4.46196167,11.3342131 C4.53650061,10.9630049 4.64899751,10.6664615 4.79945575,10.4445739 C4.94991399,10.2226863 5.15972416,10.048249 5.42889257,9.92125669 C5.69806098,9.79426442 5.9996631,9.73076923 6.333708,9.73076923 C6.90517323,9.73076923 7.36344282,9.91497504 7.70853053,10.2833922 C7.99288279,10.5848244 8.13505679,10.925326 8.13505679,11.3049074 C8.13505679,11.8435779 7.84380714,12.2733914 7.2612991,12.5943609 C7.6091475,12.669719 7.88728402,12.8385743 8.09571699,13.100932 C8.30414996,13.3632896 8.40836488,13.6800678 8.40836488,14.051276 C8.40836488,14.5899465 8.21373834,15.0490655 7.82447941,15.4286468 C7.43522049,15.8082281 6.95072462,15.9980159 6.37097728,15.9980159 C5.82159766,15.9980159 5.36608873,15.8382314 5.00443682,15.5186574 C4.64278491,15.1990834 4.43297473,14.7811316 4.375,14.2647894 Z M9.09163512,14.2647894 L10.2179957,14.1266337 C10.2538849,14.4169017 10.350508,14.638786 10.507868,14.7922931 C10.665228,14.9458003 10.8557135,15.0225527 11.0793303,15.0225527 C11.3195114,15.0225527 11.5217297,14.9304498 11.6859915,14.7462412 C11.8502532,14.5620326 11.9323829,14.3136339 11.9323829,14.0010375 C11.9323829,13.7051874 11.8537041,13.4707436 11.6963441,13.2976992 C11.5389841,13.1246548 11.3471182,13.0381339 11.1207407,13.0381339 C10.9716628,13.0381339 10.7936002,13.0674394 10.5865476,13.1260512 L10.7149195,12.1673341 C11.0296395,12.1757072 11.269817,12.10663 11.4354591,11.9601005 C11.6011012,11.8135709 11.683921,11.6188989 11.683921,11.3760785 C11.683921,11.1695416 11.6231864,11.0048728 11.5017156,10.8820671 C11.3802447,10.7592613 11.2187461,10.6978594 11.0172149,10.6978594 C10.8184443,10.6978594 10.6486637,10.7676343 10.507868,10.9071863 C10.3670722,11.0467382 10.2814917,11.250481 10.251124,11.5184208 L9.17859678,11.3342131 C9.25313573,10.9630049 9.36563263,10.6664615 9.51609087,10.4445739 C9.6665491,10.2226863 9.87635928,10.048249 10.1455277,9.92125669 C10.4146961,9.79426442 10.7162982,9.73076923 11.0503431,9.73076923 C11.6218083,9.73076923 12.0800779,9.91497504 12.4251656,10.2833922 C12.7095179,10.5848244 12.8516919,10.925326 12.8516919,11.3049074 C12.8516919,11.8435779 12.5604423,12.2733914 11.9779342,12.5943609 C12.3257826,12.669719 12.6039191,12.8385743 12.8123521,13.100932 C13.0207851,13.3632896 13.125,13.6800678 13.125,14.051276 C13.125,14.5899465 12.9303735,15.0490655 12.5411145,15.4286468 C12.1518556,15.8082281 11.6673597,15.9980159 11.0876124,15.9980159 C10.5382328,15.9980159 10.0827238,15.8382314 9.72107194,15.5186574 C9.35942002,15.1990834 9.14960985,14.7811316 9.09163512,14.2647894 Z" id="33" fill="#FFFFFF"></path>
                        </g>
                    </g>
                </g>
            </g>
        </g>
    </g>
</svg>