<?xml version="1.0" encoding="UTF-8"?>
<svg width="56px" height="64px" viewBox="0 0 56 64" version="1.1" xmlns="http://www.w3.org/2000/svg" xmlns:xlink="http://www.w3.org/1999/xlink">
    <!-- Generator: Sketch 57.1 (83088) - https://sketch.com -->
    <title>Shape</title>
    <desc>Created with Sketch.</desc>
    <g id="Page-1" stroke="none" stroke-width="1" fill="none" fill-rule="evenodd">
        <g id="Bet-Chance-Page-English-1" transform="translate(-662.000000, -389.000000)" fill="#131313" fill-rule="nonzero">
            <g id="Group-14" transform="translate(455.000000, 176.000000)">
                <g id="Group-11" transform="translate(45.000000, 61.000000)">
                    <g id="Group-12" transform="translate(105.000000, 35.000000)">
                        <g id="pike" transform="translate(20.000000, 49.000000)">
                            <g id="Combined-Shape-+-spades-+-spades-copy-+-spades-copy-2-+-Rectangle-3-Mask">
                                <g id="spades" transform="translate(37.000000, 68.000000)">
                                    <path d="M47.0392192,21.7321948 C34.9564028,12.7522996 30.7929271,5.56380524 27.9651818,0 L27.9651818,0 C27.9649421,0 27.9649421,0 27.9649421,0 L27.9649421,0 C25.1374365,5.56380524 20.9737211,12.7524195 8.89090462,21.7321948 C-11.7105036,37.0434157 7.68137653,58.4155805 24.7310245,46.6526442 C23.6201331,53.9515206 19.829032,59.2726292 15.9789645,61.5639251 L15.9789645,63.9200599 L27.9649421,63.9200599 L39.9509196,63.9200599 L39.9509196,61.5642846 C36.1006125,59.2729888 32.3097511,53.9517603 31.1987398,46.6526442 C48.2482679,58.4158202 67.6405076,37.0434157 47.0392192,21.7321948 Z" id="Shape"></path>
                                </g>
                            </g>
                        </g>
                    </g>
                </g>
            </g>
        </g>
    </g>
</svg>