<?xml version="1.0" encoding="UTF-8"?>
<svg width="20px" height="20px" viewBox="0 0 20 20" version="1.1" xmlns="http://www.w3.org/2000/svg" xmlns:xlink="http://www.w3.org/1999/xlink">
    <!-- Generator: Sketch 57.1 (83088) - https://sketch.com -->
    <title>Group 23</title>
    <desc>Created with Sketch.</desc>
    <g id="Page-1" stroke="none" stroke-width="1" fill="none" fill-rule="evenodd">
        <g id="Bet-Chance-Page-English-1" transform="translate(-515.000000, -923.000000)">
            <g id="Group-14" transform="translate(455.000000, 176.000000)">
                <g id="Group-42-Copy-64" transform="translate(45.000000, 742.000000)">
                    <g id="Group-23" transform="translate(15.000000, 5.000000)">
                        <circle id="Oval-2" fill="#FFFFFF" cx="10" cy="10" r="10"></circle>
                        <path d="M13.4103786,8.07988255 C11.2500311,6.3940465 10.5056223,5.04451815 10.0000355,4 L10.0000355,4 C10,4 10,4 10,4 L10,4 C9.49444872,5.04451815 8.74999711,6.394069 6.58964956,8.07988255 C2.90622015,10.9543268 6.37339195,14.9666194 9.42178428,12.7583105 C9.22316242,14.1285613 8.54533238,15.127517 7.85695945,15.5576722 L7.85695945,16 L10,16 L12.1430259,16 L12.1430259,15.5577397 C11.4546101,15.1275845 10.7768229,14.1286063 10.5781796,12.7583105 C13.6265505,14.9666644 17.0937866,10.9543268 13.4103786,8.07988255 Z" id="Shape" fill="#131313" fill-rule="nonzero"></path>
                    </g>
                </g>
            </g>
        </g>
    </g>
</svg>