<?xml version="1.0" encoding="UTF-8"?>
<svg width="32px" height="32px" viewBox="0 0 32 32" version="1.1" xmlns="http://www.w3.org/2000/svg" xmlns:xlink="http://www.w3.org/1999/xlink">
    <!-- Generator: Sketch 57.1 (83088) - https://sketch.com -->
    <title>poker_icon</title>
    <desc>Created with Sketch.</desc>
    <g id="Page-1" stroke="none" stroke-width="1" fill="none" fill-rule="evenodd">
        <g id="Bet-Chance-Page-English-2" transform="translate(-1006.000000, -76.000000)" fill="#FFFFFF" fill-rule="nonzero">
            <g id="Group-34" transform="translate(0.000000, 56.000000)">
                <g id="Group-8-Copy-6" transform="translate(958.000000, 5.000000)">
                    <g id="poker_icon" transform="translate(48.000000, 15.000000)">
                        <path d="M0.0419047619,23.0507914 C0.0419047619,20.8703002 1.83073016,19.1026901 4.03733333,19.1026901 C5.13104762,19.1026901 6.12126984,19.5375283 6.84234921,20.2413411 C7.10977778,20.502269 7.5455873,20.502269 7.81295238,20.2413411 C8.53409524,19.5375906 9.52431746,19.1026901 10.6179683,19.1026901 C12.8245714,19.1026901 14.6133968,20.8703002 14.6133968,23.0507914 L14.6133968,23.0507914 C14.6133968,27.1283899 9.26895238,30.8378947 7.73479365,31.8186667 C7.48679365,31.977232 7.16844444,31.977232 6.92044444,31.8186667 C5.3864127,30.8378947 0.0419047619,27.1284522 0.0419047619,23.0507914" id="Shape"></path>
                        <path d="M28.652127,23.7277193 C27.4374603,23.6592281 26.3742857,24.3174425 25.8643175,25.2996491 C25.751746,25.516538 25.5640635,25.6868928 25.3288254,25.763306 C25.3259048,25.7642417 25.3229841,25.7652398 25.3200635,25.7661131 C25.1200635,25.8308616 24.9201905,25.6633762 24.9515556,25.4587135 C25.0204444,25.0092164 25.1286349,24.5723821 25.272127,24.1512671 C25.3500317,23.9226511 25.520381,23.7390721 25.7392381,23.6299727 C26.7417778,23.1300117 27.4140317,22.0839922 27.344254,20.8886394 C27.2589206,19.427306 26.0215238,18.233575 24.5329524,18.1746277 C22.8551111,18.1081326 21.4736508,19.4248109 21.4736508,21.0584327 C21.4736508,22.1837973 22.1304762,23.1562105 23.0871746,23.6317193 C23.3040635,23.7395088 23.472381,23.9217778 23.5496508,24.1482105 C23.6935873,24.5702612 23.8022222,25.0081559 23.8713016,25.4587135 C23.9026032,25.6633138 23.7027937,25.8308616 23.5027937,25.7661131 C23.4998095,25.7651774 23.4967619,25.7641793 23.4937778,25.7631813 C23.2587302,25.686768 23.0711746,25.516538 22.9586667,25.2998363 C22.4488254,24.3175049 21.3855873,23.6591657 20.1707302,23.7276569 C18.6833016,23.8114932 17.468254,25.0271813 17.408254,26.4896374 C17.3406349,28.1380429 18.6808254,29.4952671 20.3435556,29.4952671 C21.4853333,29.4952671 22.4723175,28.8541442 22.9580317,27.9192827 C23.0710476,27.70177 23.2594921,27.5309786 23.4954286,27.4543158 C23.4981587,27.4534425 23.5008889,27.4525068 23.503619,27.4516335 C23.703746,27.386885 23.9030476,27.5545575 23.872127,27.7592827 C23.6646984,29.1304172 23.0926349,30.3844055 22.2559365,31.4236881 C22.0885714,31.6315945 22.2435556,31.9375595 22.5133968,31.9375595 L26.3092063,31.9375595 C26.5790476,31.9375595 26.7340317,31.6315945 26.5666667,31.4236881 C25.7299683,30.3844055 25.1579048,29.1304172 24.9504762,27.7592827 C24.9194921,27.5544951 25.1187937,27.386885 25.3189841,27.4516335 C25.3217143,27.4525068 25.3244444,27.4534425 25.3271746,27.4543158 C25.5631746,27.5309786 25.7515556,27.7018324 25.8645714,27.9192827 C26.3502857,28.8542066 27.3372698,29.4952671 28.4790476,29.4952671 C30.1419048,29.4952671 31.4820317,28.1379805 31.4143492,26.4896374 C31.3546032,25.0272437 30.1395556,23.8115556 28.652127,23.7277193 Z" id="Shape"></path>
                        <path d="M24.8359365,0.205723197 C26.651619,2.51296686 29.420127,5.23334113 31.7681905,7.01748148 C32.0472381,7.22950487 32.0472381,7.63926706 31.7681905,7.85129045 C29.420127,9.6354308 26.651619,12.3557427 24.8359365,14.6630487 C24.620127,14.9373255 24.2029206,14.9373255 23.9871746,14.6630487 C22.1714921,12.3558051 19.4029841,9.6354308 17.0549206,7.85129045 C16.775873,7.63926706 16.775873,7.22950487 17.0549206,7.01748148 C19.4029206,5.23334113 22.1714286,2.51296686 23.9871111,0.205723197 C24.2029206,-0.0685536062 24.6200635,-0.0685536062 24.8359365,0.205723197 Z" id="Shape"></path>
                        <path d="M7.61238095,0.0812787524 C7.43638095,-0.024202729 7.21885714,-0.024202729 7.04292063,0.0812787524 C5.6952381,0.889013645 0.0226031746,4.53769981 0.0226031746,8.7265809 C0.0226031746,10.9037037 1.81619048,12.6685692 4.02863492,12.6685692 C4.7528254,12.6685692 5.43149206,12.4790019 6.01720635,12.147961 C6.18514286,12.0530214 6.38152381,12.2208187 6.31561905,12.401154 C6.00311111,13.2563587 5.56063492,14.0497466 5.0111746,14.7572398 C4.80133333,15.027462 5.00285714,15.4192593 5.34660317,15.4192593 L9.3511746,15.4192593 C9.69504762,15.4192593 9.89612698,15.0272749 9.68615873,14.7569279 C9.14292063,14.0574191 8.70438095,13.2740741 8.39257143,12.4299727 C8.32634921,12.2506979 8.51993651,12.0825887 8.68844444,12.1747836 C9.26253968,12.4889825 9.92298413,12.6685692 10.6267302,12.6685692 C12.8392381,12.6685692 14.6327619,10.9037037 14.6327619,8.7265809 C14.6327619,4.53769981 8.96012698,0.889013645 7.61238095,0.0812787524 Z" id="Shape"></path>
                    </g>
                </g>
            </g>
        </g>
    </g>
</svg>