<?xml version="1.0" encoding="UTF-8"?>
<svg width="16px" height="15px" viewBox="0 0 16 15" version="1.1" xmlns="http://www.w3.org/2000/svg" xmlns:xlink="http://www.w3.org/1999/xlink">
    <!-- Generator: Sketch 57.1 (83088) - https://sketch.com -->
    <title>poker-3</title>
    <desc>Created with Sketch.</desc>
    <g id="Page-1" stroke="none" stroke-width="1" fill="none" fill-rule="evenodd">
        <g id="Bet-Select-Liga-Page-Hebrew" transform="translate(-1482.000000, -607.000000)" fill-rule="nonzero">
            <g id="Group-22" transform="translate(1255.000000, 446.000000)">
                <g id="Group-20-Copy-22" transform="translate(34.000000, 152.000000)">
                    <g id="poker-3" transform="translate(193.000000, 9.000000)">
                        <path d="M4.80379661,12.6410847 L12.5336949,14.308339 C12.8743051,14.3818305 13.2100339,14.1651525 13.2835254,13.8245424 L15.7242034,2.50928814 C15.7976949,2.16867797 15.5810169,1.83294915 15.2404068,1.75945763 L7.51077966,0.0924745763 C7.17016949,0.0189830508 6.83444068,0.235661017 6.76094915,0.576271186 L4.32027119,11.8915254 C4.24677966,12.2318644 4.46318644,12.5675932 4.80379661,12.6410847 Z" id="Shape" fill="#EFEFEF"></path>
                        <path d="M4.80379661,12.6410847 C4.46318644,12.5675932 4.24650847,12.2318644 4.32,11.8912542 L6.59091525,1.36271186 L2.30427119,0.769355932 C1.95932203,0.721627119 1.64067797,0.962711864 1.59294915,1.3079322 L0.00596610169,12.7739661 C-0.0417627119,13.1191864 0.199322034,13.4378305 0.544542373,13.4855593 L8.37749153,14.5694915 C8.72271186,14.6172203 9.04108475,14.3761356 9.08908475,14.0309153 L9.15172881,13.5788475 L4.80379661,12.6410847 Z" id="Shape" fill="#E0E2E0"></path>
                        <path d="M9.37762712,10.1882034 C8.01898305,8.74494915 7.42237288,7.52949153 7.20488136,6.66494915 C6.95077966,5.65450847 7.63633898,4.42033898 8.65871186,4.21966102 C9.86033898,3.98372881 10.4732203,5.10915254 10.4732203,5.10915254 C10.4732203,5.10915254 11.4955932,4.33654237 12.4930169,5.04677966 C13.3415593,5.65125424 13.4576271,7.05816949 12.8094915,7.87389831 C12.2551864,8.5719322 11.2105763,9.43349153 9.37762712,10.1882034 Z" id="Shape" fill="#C03A2B"></path>
                        <path d="M6.02522034,3.98671186 C5.93464407,3.89911864 5.84135593,3.81125424 5.744,3.7220339 C3.97288136,4.61179661 2.99579661,5.54901695 2.49491525,6.28691525 C1.9099661,7.14901695 2.13071186,8.54345763 3.02210169,9.08257627 C3.90345763,9.61572881 4.72162712,9.10210169 4.96,8.92528814 L6.02522034,3.98671186 Z" id="Shape" fill="#2C2F38"></path>
                    </g>
                </g>
            </g>
        </g>
    </g>
</svg>