<?xml version="1.0" encoding="UTF-8"?>
<svg width="16px" height="12px" viewBox="0 0 16 12" version="1.1" xmlns="http://www.w3.org/2000/svg" xmlns:xlink="http://www.w3.org/1999/xlink">
    <!-- Generator: Sketch 57.1 (83088) - https://sketch.com -->
    <title>puck</title>
    <desc>Created with Sketch.</desc>
    <g id="Page-1" stroke="none" stroke-width="1" fill="none" fill-rule="evenodd">
        <g id="Bet-Select-Liga-Page-Hebrew" transform="translate(-1482.000000, -711.000000)" fill-rule="nonzero">
            <g id="Group-22" transform="translate(1255.000000, 446.000000)">
                <g id="Group-20-Copy-25" transform="translate(26.000000, 254.000000)">
                    <g id="puck" transform="translate(201.000000, 11.000000)">
                        <path d="M7.6,8.71723415 C3.40262407,8.71723415 0,6.9634324 0,4.8 L0,8.08273493 C0,10.2461673 3.40262407,12 7.6,12 C11.7973759,12 15.2,10.2461982 15.2,8.08273493 L15.2,4.8 C15.2,6.9634324 11.7973759,8.71723415 7.6,8.71723415 Z" id="Shape" fill="#535C61"></path>
                        <ellipse id="Oval" fill="#535C61" cx="7.6" cy="4.8" rx="7.6" ry="4"></ellipse>
                        <g id="Group" fill="#000000">
                            <path d="M13.579761,1.21553684 C12.0840797,0.436578947 10.1024701,0.00757894737 8,0.00757894737 C5.89752988,0.00757894737 3.91592032,0.436578947 2.42023904,1.21553684 C0.859505976,2.02834737 0,3.13225263 0,4.32378947 L0,7.67621053 C0,8.86774737 0.859505976,9.97162105 2.42023904,10.7844632 C3.91592032,11.5634211 5.89752988,11.9924211 8,11.9924211 C10.1024701,11.9924211 12.0840797,11.5634211 13.579761,10.7844632 C15.140494,9.97165263 16,8.86777895 16,7.67621053 L16,4.32378947 C16,3.13225263 15.140494,2.02834737 13.579761,1.21553684 Z M2.71681275,1.77457895 C4.12270916,1.04242105 5.99898008,0.639157895 8,0.639157895 C10.0010199,0.639157895 11.8772908,1.04242105 13.2831873,1.77457895 C14.6240956,2.47294737 15.3625498,3.37828421 15.3625498,4.32378947 C15.3625498,5.26929474 14.6240956,6.17463158 13.2831873,6.873 C11.8772908,7.60515789 10.0010199,8.00842105 8,8.00842105 C5.99898008,8.00842105 4.12270916,7.60515789 2.71681275,6.873 C1.37590438,6.17463158 0.637450199,5.26929474 0.637450199,4.32378947 C0.637450199,3.37828421 1.37590438,2.47294737 2.71681275,1.77457895 Z M15.3625498,6.03603158 L15.3625498,7.67621053 C15.3625498,8.62171579 14.6240956,9.52705263 13.2831873,10.2254211 C11.8772908,10.9575789 10.0010199,11.3608421 8,11.3608421 C5.99898008,11.3608421 4.12270916,10.9575789 2.71681275,10.2254211 C1.37590438,9.52705263 0.637450199,8.62171579 0.637450199,7.67621053 L0.637450199,6.03603158 L0.637450199,6.03558947 C1.04717131,6.55591579 1.6476494,7.02969474 2.42023904,7.43204211 C3.91592032,8.211 5.89752988,8.64 8,8.64 C10.1024701,8.64 12.0840797,8.211 13.579761,7.43204211 C14.3523506,7.02966316 14.9527968,6.55591579 15.3625498,6.03558947 L15.3625498,6.03603158 Z" id="Shape"></path>
                            <path d="M3.60181673,2.70208421 C3.64720319,2.70208421 3.69335458,2.69242105 3.73717928,2.67205263 C4.08267729,2.51115789 4.47333865,2.37012632 4.89826295,2.25293684 C5.0678247,2.20616842 5.16704382,2.03201053 5.11980876,1.86401053 C5.07260558,1.69604211 4.8969243,1.59770526 4.72726693,1.64450526 C4.26807968,1.7712 3.84372908,1.92461053 3.46603984,2.10044211 C3.30674104,2.17465263 3.23827888,2.36273684 3.31314741,2.52056842 C3.36739442,2.63497895 3.48210359,2.70208421 3.60181673,2.70208421 Z" id="Shape"></path>
                            <path d="M3.52889243,6.576 C4.72847809,7.11928421 6.31636653,7.41852632 8,7.41852632 C8.17603187,7.41852632 8.3187251,7.27711579 8.3187251,7.10273684 C8.3187251,6.92835789 8.17603187,6.78694737 8,6.78694737 C4.52041434,6.78694737 2.18301195,5.51333684 2.18301195,4.32378947 C2.18301195,4.08066316 2.27572908,3.837 2.45861355,3.59958947 C2.56541833,3.46095789 2.5385498,3.26276842 2.39862948,3.15694737 C2.25870916,3.05115789 2.05870916,3.07771579 1.95187251,3.21637895 C1.68226295,3.56636842 1.54552988,3.93896842 1.54552988,4.32375789 C1.54552988,5.19688421 2.24991235,5.99671579 3.52889243,6.576 Z" id="Shape"></path>
                        </g>
                    </g>
                </g>
            </g>
        </g>
    </g>
</svg>