<?xml version="1.0" encoding="UTF-8"?>
<svg width="37px" height="38px" viewBox="0 0 37 38" version="1.1" xmlns="http://www.w3.org/2000/svg" xmlns:xlink="http://www.w3.org/1999/xlink">
    <!-- Generator: Sketch 57.1 (83088) - https://sketch.com -->
    <title>roulette_icon</title>
    <desc>Created with Sketch.</desc>
    <g id="Page-1" stroke="none" stroke-width="1" fill="none" fill-rule="evenodd">
        <g id="Bet-Chance-Page-English-2" transform="translate(-602.000000, -73.000000)" fill="#FFFFFF" fill-rule="nonzero">
            <g id="Group-34" transform="translate(0.000000, 56.000000)">
                <g id="Group-8-Copy-3" transform="translate(559.000000, 5.000000)">
                    <g id="roulette_icon" transform="translate(43.000000, 12.500000)">
                        <path d="M18.5,0 C8.28275833,0 0,8.28275833 0,18.5 C0,28.7172417 8.28275833,37 18.5,37 C28.7172417,37 37,28.7172417 37,18.5 C36.9884375,8.2875375 28.7124625,0.0115625 18.5,0 Z M35.75125,17.8833333 L33.90125,17.8845667 C33.8640187,16.9503938 33.7418417,16.0215396 33.5361833,15.1095667 L35.3245167,14.6310333 C35.5698729,15.6991 35.7127854,16.7881333 35.75125,17.8833333 Z M35.0100167,13.4408667 L33.2229167,13.9181667 C32.9434125,13.0265438 32.5829708,12.1622854 32.1462167,11.3361833 L33.74955,10.4111833 C34.2655458,11.3785021 34.6876542,12.3929958 35.0100167,13.4408667 Z M27.6322167,26.7633333 C28.0790688,26.2721583 28.4857604,25.7459104 28.8482833,25.1896 L30.45655,26.1183 C30.0121646,26.8149792 29.5081167,27.4717292 28.9500333,28.08115 L27.6322167,26.7633333 Z M28.08115,28.9500333 C27.4717292,29.5078854 26.8149792,30.0117792 26.1183,30.4559333 L25.1871333,28.8464333 C25.7441375,28.48445 26.2712333,28.078375 26.7633333,27.6322167 L28.08115,28.9500333 Z M29.4655667,24.12215 C29.7712792,23.5319229 30.0281979,22.9177229 30.2339333,22.2857167 L32.0278167,22.7661 C31.7780667,23.5542 31.45925,24.3187896 31.0750667,25.05085 L29.4655667,24.12215 Z M28.9488,8.92193333 C29.5068833,9.53135417 30.0109313,10.1881042 30.4553167,10.8847833 L28.84705,11.8134833 C28.4845271,11.2571729 28.0778354,10.730925 27.6309833,10.23975 L28.9488,8.92193333 Z M26.7633333,9.36778333 C26.2722354,8.92108542 25.7462188,8.51447083 25.1902167,8.15171667 L26.1152167,6.54406667 C26.8118958,6.98822083 27.4686458,7.49211458 28.0780667,8.04996667 L26.7633333,9.36778333 Z M31.0738333,11.9522333 C31.4578625,12.6832917 31.7766792,13.4468021 32.0265833,14.2339 L30.2327,14.7173667 C30.0269646,14.0853604 29.7700458,13.4711604 29.4643333,12.8809333 L31.0738333,11.9522333 Z M30.5539833,21.09 C30.6895729,20.4400333 30.7720521,19.7800458 30.80065,19.1166667 L32.6666833,19.1166667 C32.6307625,19.9428458 32.5226146,20.7643229 32.34355,21.5716167 L30.5539833,21.09 Z M30.80065,17.8833333 C30.7720521,17.2199542 30.6895729,16.5599667 30.5539833,15.91 L32.3423167,15.4302333 C32.5221521,16.2369104 32.6310708,17.0576938 32.6679167,17.8833333 L30.80065,17.8833333 L30.80065,17.8833333 Z M33.1298,9.34126667 L31.5270833,10.26935 C31.0273521,9.47955417 30.4573208,8.73654792 29.82385,8.04935 L31.1311833,6.7414 C31.8778896,7.54306667 32.5471271,8.41356875 33.1298,9.34126667 Z M27.6538,3.87205 C28.5814979,4.45472292 29.452,5.12396042 30.2536667,5.87066667 L28.9488,7.178 C28.2614479,6.54491458 27.5184417,5.9750375 26.7288,5.47538333 L27.6538,3.87205 Z M23.5616,1.9906 C24.6094708,2.3129625 25.6239646,2.73507083 26.5912833,3.25106667 L25.6656667,4.85625 C24.8394875,4.41911042 23.9749979,4.05851458 23.0830667,3.77893333 L23.5616,1.9906 Z M25.0514667,5.92493333 L24.12215,7.53443333 C23.5318458,7.22879792 22.9176458,6.97164792 22.2857167,6.76545 L22.7661,4.97218333 C23.5543542,5.22216458 24.3190979,5.54098125 25.0514667,5.92493333 Z M19.1166667,1.24875 C20.2120979,1.28736875 21.3013625,1.4305125 22.3695833,1.6761 L21.8916667,3.46381667 C20.9797708,3.25777292 20.0508396,3.13559583 19.1166667,3.09875 L19.1166667,1.24875 Z M19.1166667,4.33208333 C19.9426146,4.36792708 20.7638604,4.476075 21.571,4.65521667 L21.09,6.44601667 C20.4400333,6.31042708 19.7800458,6.22794792 19.1166667,6.19935 L19.1166667,4.33208333 L19.1166667,4.33208333 Z M17.8833333,1.24875 L17.8833333,3.09875 C16.9491604,3.13559583 16.0203063,3.25777292 15.1083333,3.46381667 L14.6291833,1.67548333 C15.6978667,1.42997292 16.7875167,1.2871375 17.8833333,1.24875 Z M17.8833333,4.33208333 L17.8833333,6.19935 C17.2199542,6.22794792 16.5600437,6.31042708 15.91,6.44601667 L15.43085,4.65768333 C16.2372958,4.47784792 17.057925,4.36885208 17.8833333,4.33208333 Z M14.7173667,6.76668333 C14.0854375,6.97288125 13.4712375,7.23003125 12.8809333,7.53566667 L11.9516167,5.92616667 C12.6839854,5.54221458 13.4487292,5.22339792 14.2369833,4.97341667 L14.7173667,6.76668333 Z M13.4384,1.99183333 L13.9169333,3.77708333 C13.024925,4.05728125 12.1604354,4.41849375 11.3343333,4.85625 L10.4093333,3.25291667 C11.3764208,2.73676667 12.3907604,2.31442708 13.4384,1.99183333 Z M8.36631667,27.7617167 L8.04996667,28.0780667 C7.4920375,27.4684917 6.98798958,26.8117417 6.54345,26.1152167 L8.14616667,25.1902167 C8.19365,25.2629833 8.24298333,25.3351333 8.29231667,25.4079 C7.8999625,26.1505979 7.92809792,27.04515 8.36631667,27.7617167 Z M5.92493333,25.05085 C5.54075,24.3187896 5.22193333,23.5542 4.97218333,22.7661 L6.75743333,22.2851 C6.96139583,22.9186479 7.21708125,23.5343125 7.5221,24.12585 L5.92493333,25.05085 Z M6.19071667,19.1166667 C6.22270625,19.7802771 6.30826875,20.4401875 6.44663333,21.09 L4.65521667,21.5697667 C4.47622917,20.7630125 4.36808125,19.9422292 4.33208333,19.1166667 L6.19071667,19.1166667 Z M4.33208333,17.8833333 C4.36800417,17.0571542 4.47615208,16.2356771 4.65521667,15.4283833 L6.44601667,15.91 C6.31042708,16.5599667 6.22794792,17.2199542 6.19935,17.8833333 L4.33208333,17.8833333 L4.33208333,17.8833333 Z M4.97218333,14.2382167 C5.2220875,13.4511187 5.54090417,12.6876083 5.92493333,11.95655 L7.53443333,12.8821667 C7.22872083,13.4723938 6.97180208,14.0865938 6.76606667,14.7186 L4.97218333,14.2382167 Z M6.54345,10.8860167 C6.98783542,10.1893375 7.49188333,9.5325875 8.04996667,8.92316667 L9.36778333,10.2409833 C8.92093125,10.7321583 8.51423958,11.2584063 8.15171667,11.8147167 L6.54345,10.8860167 Z M8.92193333,8.0512 C9.53135417,7.49334792 10.1881042,6.98945417 10.8847833,6.5453 L11.8128667,8.15295 C11.2568646,8.51570417 10.7308479,8.92231875 10.23975,9.36901667 L8.92193333,8.0512 Z M9.3425,3.87205 L10.2675,5.47538333 C9.47785833,5.9750375 8.73485208,6.54491458 8.0475,7.178 L6.74016667,5.87066667 C7.54260417,5.12380625 8.41387708,4.45464583 9.3425,3.87205 Z M5.87005,6.74571667 L7.178,8.05058333 C6.54452917,8.73778125 5.97449792,9.4807875 5.47476667,10.2705833 L3.87143333,9.34558333 C4.45410625,8.41788542 5.12334375,7.54738333 5.87005,6.74571667 Z M3.25106667,10.4087167 L4.85563333,11.33495 C4.41887917,12.1610521 4.0584375,13.0253104 3.77893333,13.9169333 L1.9906,13.4384 C2.3129625,12.3905292 2.73507083,11.3760354 3.25106667,10.4087167 Z M1.6761,14.6304167 L3.46381667,15.1083333 C3.25815833,16.0203062 3.13598125,16.9491604 3.09875,17.8833333 L1.24875,17.8833333 C1.28736875,16.7879021 1.4305125,15.6986375 1.6761,14.6304167 Z M1.24875,19.1166667 L3.09875,19.1166667 C3.13598125,20.0508396 3.25815833,20.9796937 3.46381667,21.8916667 L1.67548333,22.3702 C1.43005,21.3017479 1.2871375,20.2122521 1.24875,19.1166667 Z M1.99183333,23.5616 L3.77708333,23.0830667 C4.0565875,23.9746896 4.41702917,24.8389479 4.85378333,25.66505 L3.25045,26.59005 C2.73514792,25.6230396 2.31373333,24.6089312 1.99183333,23.5616 Z M3.87205,27.6575 L5.47291667,26.7318833 C5.97280208,27.521525 6.54291042,28.2645313 7.17615,28.9518833 L5.86881667,30.2592167 C5.12265,29.4569333 4.45402917,28.5858146 3.87205,27.6575 Z M9.34311667,33.12795 C8.41541875,32.5452771 7.54491667,31.8760396 6.74325,31.1293333 L8.04811667,29.822 C8.73539167,30.4551625 9.47839792,31.0249625 10.2681167,31.5246167 L9.34311667,33.12795 Z M11.5927167,28.7076833 C11.6648667,28.7570167 11.7370167,28.80635 11.8097833,28.8532167 L10.8847833,30.45655 C10.1881042,30.0123958 9.53135417,29.5085021 8.92193333,28.95065 L9.23828333,28.6336833 C9.95508125,29.0719021 10.8497875,29.1000375 11.5927167,28.7076833 Z M9.25,26.5166667 C9.25,25.8354813 9.80214792,25.2833333 10.4833333,25.2833333 C11.1645188,25.2833333 11.7166667,25.8354813 11.7166667,26.5166667 C11.7166667,27.1978521 11.1645188,27.75 10.4833333,27.75 C9.80214792,27.75 9.25,27.1978521 9.25,26.5166667 Z M13.43655,35.0094 C12.3886792,34.6870375 11.3741854,34.2649292 10.4068667,33.7489333 L11.3324833,32.14375 C12.1586625,32.5808896 13.0231521,32.9414854 13.9150833,33.2210667 L13.43655,35.0094 Z M11.9540833,31.0750667 L12.8766167,29.4779 C13.4683083,29.7829958 14.0842042,30.0387583 14.7179833,30.2425667 L14.23945,32.0278167 C13.4511958,31.7778354 12.6864521,31.4590187 11.9540833,31.0750667 Z M17.8833333,35.75125 C16.7879021,35.7126313 15.6986375,35.5694875 14.6304167,35.3239 L15.1083333,33.5361833 C16.0203062,33.7422271 16.9491604,33.8644042 17.8833333,33.90125 L17.8833333,35.75125 Z M17.8833333,32.6679167 C17.0573854,32.6320729 16.2361396,32.523925 15.429,32.3447833 L15.91,30.5533667 C16.5598125,30.6918083 17.2197229,30.7773708 17.8833333,30.8092833 L17.8833333,32.6679167 Z M12.5454667,27.86285 C13.2918646,26.7268729 12.9760542,25.2009313 11.8400771,24.4545333 C11.0197562,23.9154896 9.95747083,23.9154896 9.13715,24.4545333 C5.84438125,19.2835521 7.36693125,12.4223646 12.5378354,9.12951875 C17.7088167,5.83675 24.5700042,7.3593 27.86285,12.5302042 C28.99875,14.3140667 29.6014646,16.3852187 29.6000027,18.5 C29.6035458,24.6269688 24.6395333,29.5966854 18.5125646,29.6002331 C16.3986312,29.6014646 14.3283271,28.9986729 12.5454667,27.86285 Z M19.1166667,30.8000333 C19.7800458,30.7714354 20.4400333,30.6889563 21.09,30.5533667 L21.56915,32.3417 C20.7620104,32.5208417 19.9407646,32.6289896 19.1148167,32.6648333 L19.1166667,30.8000333 Z M19.1166667,35.75125 L19.1166667,33.90125 C20.0508396,33.8644042 20.9797708,33.7422271 21.8916667,33.5361833 L22.3708167,35.3245167 C21.3021333,35.5700271 20.2124833,35.7128625 19.1166667,35.75125 Z M22.2826333,30.2327 C22.9145625,30.0265021 23.5287625,29.7693521 24.1190667,29.4637167 L25.0483833,31.0732167 C24.3160146,31.4571687 23.5512708,31.7759854 22.7630167,32.0259667 L22.2826333,30.2327 Z M23.5609833,35.0094 L23.0830667,33.2229167 C23.9749979,32.9433354 24.8394875,32.5827396 25.6656667,32.1456 L26.5906667,33.7489333 C25.6233479,34.2649292 24.6088542,34.6870375 23.5609833,35.0094 Z M27.6599667,33.1298 L26.7325,31.5264667 C27.5221417,31.0268125 28.2651479,30.4569354 28.9525,29.82385 L30.2598333,31.1311833 C29.4581667,31.8778896 28.5876646,32.5471271 27.6599667,33.1298 Z M31.12995,30.2561333 L29.822,28.9512667 C30.4554708,28.2640688 31.0255021,27.5210625 31.5252333,26.7312667 L33.1285667,27.6562667 C32.5458938,28.5839646 31.8766563,29.4544667 31.12995,30.2561333 Z M33.7489333,26.5931333 L32.1443667,25.6669 C32.5811208,24.8407979 32.9415625,23.9765396 33.2210667,23.0849167 L35.0094,23.56345 C34.6870375,24.6113208 34.2649292,25.6258146 33.7489333,26.5931333 Z M35.3239,22.3708167 L33.5361833,21.8929 C33.7418417,20.9809271 33.8640187,20.0520729 33.90125,19.1179 L35.75125,19.1179 C35.7126313,20.2133312 35.5694875,21.3025958 35.3239,22.3708167 Z" id="Shape"></path>
                        <path d="M18.5,16.0333333 C17.1377063,16.0333333 16.0333333,17.1377063 16.0333333,18.5 C16.0333333,19.8622938 17.1377063,20.9666667 18.5,20.9666667 C19.8622938,20.9666667 20.9666667,19.8622938 20.9666667,18.5 C20.9666667,17.1377063 19.8622938,16.0333333 18.5,16.0333333 Z M18.5,19.7333333 C17.8188146,19.7333333 17.2666667,19.1811854 17.2666667,18.5 C17.2666667,17.8188146 17.8188146,17.2666667 18.5,17.2666667 C19.1811854,17.2666667 19.7333333,17.8188146 19.7333333,18.5 C19.7333333,19.1811854 19.1811854,19.7333333 18.5,19.7333333 Z" id="Shape"></path>
                        <path d="M27.1333333,15.4166667 C26.7927792,15.4166667 26.5166667,15.6927792 26.5166667,16.0333333 L26.5166667,16.65 L23.0701167,16.65 C22.5666854,15.4139688 21.5860313,14.4333146 20.35,13.9298833 L20.35,10.4833333 L20.9666667,10.4833333 C21.3072208,10.4833333 21.5833333,10.2072208 21.5833333,9.86666667 C21.5833333,9.5261125 21.3072208,9.25 20.9666667,9.25 L16.0333333,9.25 C15.6927792,9.25 15.4166667,9.5261125 15.4166667,9.86666667 C15.4166667,10.2072208 15.6927792,10.4833333 16.0333333,10.4833333 L16.65,10.4833333 L16.65,13.9298833 C15.4139688,14.4333146 14.4333146,15.4139687 13.9298833,16.65 L10.4833333,16.65 L10.4833333,16.0333333 C10.4833333,15.6927792 10.2072208,15.4166667 9.86666667,15.4166667 C9.5261125,15.4166667 9.25,15.6927792 9.25,16.0333333 L9.25,20.9666667 C9.25,21.3072208 9.5261125,21.5833333 9.86666667,21.5833333 C10.2072208,21.5833333 10.4833333,21.3072208 10.4833333,20.9666667 L10.4833333,20.35 L13.9298833,20.35 C14.4333146,21.5859542 15.4139687,22.5666854 16.65,23.0701167 L16.65,26.5166667 L16.0333333,26.5166667 C15.6927792,26.5166667 15.4166667,26.7927792 15.4166667,27.1333333 C15.4166667,27.4738875 15.6927792,27.75 16.0333333,27.75 L20.9666667,27.75 C21.3072208,27.75 21.5833333,27.4738875 21.5833333,27.1333333 C21.5833333,26.7927792 21.3072208,26.5166667 20.9666667,26.5166667 L20.35,26.5166667 L20.35,23.0701167 C21.5860313,22.5666854 22.5666854,21.5860313 23.0701167,20.35 L26.5166667,20.35 L26.5166667,20.9666667 C26.5166667,21.3072208 26.7927792,21.5833333 27.1333333,21.5833333 C27.4738875,21.5833333 27.75,21.3072208 27.75,20.9666667 L27.75,16.0333333 C27.75,15.6927792 27.4738875,15.4166667 27.1333333,15.4166667 Z M13.6092167,19.1166667 L10.4833333,19.1166667 L10.4833333,17.8833333 L13.6092167,17.8833333 C13.5524833,18.2924917 13.5524833,18.7075083 13.6092167,19.1166667 Z M17.8833333,10.4833333 L19.1166667,10.4833333 L19.1166667,13.6092167 C18.7075083,13.5524833 18.2924917,13.5524833 17.8833333,13.6092167 L17.8833333,10.4833333 Z M19.1166667,26.5166667 L17.8833333,26.5166667 L17.8833333,23.3907833 C18.2924917,23.4475167 18.7075083,23.4475167 19.1166667,23.3907833 L19.1166667,26.5166667 Z M18.5,22.2 C16.4565208,22.2 14.8,20.5434792 14.8,18.5 C14.8,16.4565208 16.4565208,14.8 18.5,14.8 C20.5434792,14.8 22.2,16.4565208 22.2,18.5 C22.1979958,20.5426313 20.5426313,22.1979958 18.5,22.2 Z M26.5166667,19.1166667 L23.3907833,19.1166667 C23.4475167,18.7075083 23.4475167,18.2924917 23.3907833,17.8833333 L26.5166667,17.8833333 L26.5166667,19.1166667 Z" id="Shape"></path>
                    </g>
                </g>
            </g>
        </g>
    </g>
</svg>