<?xml version="1.0" encoding="UTF-8"?>
<svg width="11px" height="12px" viewBox="0 0 11 12" version="1.1" xmlns="http://www.w3.org/2000/svg" xmlns:xlink="http://www.w3.org/1999/xlink">
    <!-- Generator: Sketch 57.1 (83088) - https://sketch.com -->
    <title>sign_in_icon</title>
    <desc>Created with Sketch.</desc>
    <g id="Page-1" stroke="none" stroke-width="1" fill="none" fill-rule="evenodd">
        <g id="Bet-Live-Page-Hebrew" transform="translate(-224.000000, -22.000000)" fill="#FFFFFF">
            <g id="Group-10" transform="translate(175.000000, 18.000000)">
                <g id="Group-6">
                    <g id="sign_in_icon" transform="translate(49.000000, 4.000000)">
                        <path d="M7.91208791,6.0000108 C7.91208791,5.89312254 7.86965412,5.80055662 7.78506741,5.72242104 L4.14980465,2.36717096 C4.06517112,2.2891434 3.96501988,2.25 3.84911689,2.25 C3.7332139,2.25 3.63301585,2.2891434 3.54835892,2.36717096 C3.4637488,2.44530654 3.42140863,2.53791566 3.42140863,2.64476072 L3.42140863,4.42103273 L0.427708261,4.42103273 C0.311805267,4.42103273 0.211560412,4.46017613 0.126926885,4.5382037 C0.0422933582,4.61636087 0,4.70890519 0,4.81581506 L0,7.18418494 C0,7.29109481 0.0422933582,7.38363913 0.12695029,7.4617315 C0.211654033,7.53971586 0.311898888,7.57896727 0.427731666,7.57896727 L3.42140863,7.57896727 L3.42140863,9.35521768 C3.42140863,9.46204113 3.4637488,9.55467186 3.54835892,9.63274263 C3.63310947,9.71087821 3.73330752,9.75 3.84911689,9.75 C3.96494967,9.75 4.06517112,9.71087821 4.14980465,9.63274263 L7.78506741,6.27764376 C7.86965412,6.19942178 7.91208791,6.10685585 7.91208791,6.0000108 Z" id="Shape" fill-rule="nonzero" transform="translate(3.956044, 6.000000) rotate(-180.000000) translate(-3.956044, -6.000000) "></path>
                        <path d="M8.28571429,0 C9.39028379,-2.02906125e-16 10.2857143,0.8954305 10.2857143,2 L10.2857143,10 C10.2857143,11.1045695 9.39028379,12 8.28571429,12 L2.79120879,12 C1.68663929,12 0.791208791,11.1045695 0.791208791,10 L0.791208791,9 L1.58220879,9 L1.58241758,10.25 C1.58241758,10.7628358 1.96845777,11.1855072 2.46579646,11.2432723 L2.58241758,11.25 L8.49450549,11.25 C9.00734133,11.25 9.43001266,10.8639598 9.48777776,10.3666211 L9.49450549,10.25 L9.49450549,1.75 C9.49450549,1.19771525 9.04679024,0.75 8.49450549,0.75 L2.58241758,0.75 C2.06958174,0.75 1.64691042,1.13604019 1.58914531,1.63337887 L1.58241758,1.75 L1.58220879,3 L0.791208791,3 L0.791208791,2 C0.791208791,0.8954305 1.68663929,2.02906125e-16 2.79120879,0 L8.28571429,0 Z" id="Combined-Shape"></path>
                    </g>
                </g>
            </g>
        </g>
    </g>
</svg>