<?xml version="1.0" encoding="UTF-8"?>
<svg width="16px" height="13px" viewBox="0 0 16 13" version="1.1" xmlns="http://www.w3.org/2000/svg" xmlns:xlink="http://www.w3.org/1999/xlink">
    <!-- Generator: Sketch 57.1 (83088) - https://sketch.com -->
    <title>Group 21</title>
    <desc>Created with Sketch.</desc>
    <defs>
        <radialGradient cx="39.6143198%" cy="50%" fx="39.6143198%" fy="50%" r="50%" id="radialGradient-1">
            <stop stop-color="#FFFFFF" offset="0%"></stop>
            <stop stop-color="#CBCBCB" offset="100%"></stop>
        </radialGradient>
    </defs>
    <g id="Page-1" stroke="none" stroke-width="1" fill="none" fill-rule="evenodd">
        <g id="Bet-Select-Liga-Page-Hebrew" transform="translate(-1481.000000, -642.000000)">
            <g id="Group-22" transform="translate(1255.000000, 446.000000)">
                <g id="Group-20-Copy-23" transform="translate(34.000000, 186.000000)">
                    <g id="Group-21" transform="translate(192.000000, 10.000000)">
                        <circle id="Oval-4" fill="url(#radialGradient-1)" cx="10" cy="4" r="4"></circle>
                        <circle id="Oval-4" fill="url(#radialGradient-1)" cx="11.5" cy="7.5" r="4.5"></circle>
                        <circle id="Oval-4" fill="url(#radialGradient-1)" cx="6" cy="7" r="6"></circle>
                        <path d="M2.5,8.06270705 L3.14363464,7.98461903 C3.16414271,8.14868358 3.21935592,8.27409643 3.30927591,8.36086133 C3.39919591,8.44762624 3.50804479,8.49100805 3.63582584,8.49100805 C3.77307215,8.49100805 3.8886255,8.43894988 3.98248935,8.33483199 C4.07635321,8.2307141 4.12328443,8.09031481 4.12328443,7.91362991 C4.12328443,7.74641027 4.07832511,7.61389858 3.98840511,7.51609087 C3.89848512,7.41828315 3.78884747,7.36938003 3.65948888,7.36938003 C3.57430151,7.36938003 3.47255147,7.38594399 3.35423568,7.41907241 L3.4275911,6.87718883 C3.60743109,6.88192146 3.74467534,6.84287784 3.83932797,6.76005679 C3.9339806,6.67723574 3.9813062,6.56720372 3.9813062,6.42995741 C3.9813062,6.31321917 3.94660076,6.22014548 3.87718883,6.15073355 C3.8077769,6.08132163 3.71549198,6.04661619 3.60033128,6.04661619 C3.48674813,6.04661619 3.38973064,6.08605419 3.30927591,6.16493138 C3.22882118,6.24380857 3.17991805,6.35896753 3.16256507,6.51041174 L2.54969238,6.40629437 C2.59228606,6.19648105 2.65657001,6.02886953 2.74254614,5.9034548 C2.82852228,5.77804007 2.94841381,5.67944507 3.10222433,5.60766682 C3.25603484,5.53588858 3.42837892,5.5 3.61926171,5.5 C3.94581327,5.5 4.20768161,5.60411633 4.40487459,5.81235211 C4.56736159,5.98272683 4.64860388,6.17518429 4.64860388,6.38973024 C4.64860388,6.69419619 4.48217551,6.93713429 4.14931377,7.11855182 C4.34808429,7.1611455 4.50701944,7.25658547 4.62612399,7.40487459 C4.74522855,7.5531637 4.80477993,7.73221223 4.80477993,7.94202556 C4.80477993,8.2464915 4.69356477,8.50599356 4.47113109,8.72053952 C4.24869742,8.93508547 3.97184264,9.04235684 3.64055845,9.04235684 C3.32662724,9.04235684 3.06633642,8.95204381 2.85967818,8.77141505 C2.65301995,8.59078629 2.53312842,8.35455265 2.5,8.06270705 Z M5.19522007,8.06270705 L5.83885471,7.98461903 C5.85936278,8.14868358 5.91457598,8.27409643 6.00449598,8.36086133 C6.09441597,8.44762624 6.20326486,8.49100805 6.33104591,8.49100805 C6.46829221,8.49100805 6.58384556,8.43894988 6.67770942,8.33483199 C6.77157327,8.2307141 6.8185045,8.09031481 6.8185045,7.91362991 C6.8185045,7.74641027 6.77354517,7.61389858 6.68362518,7.51609087 C6.59370518,7.41828315 6.48406753,7.36938003 6.35470894,7.36938003 C6.26952158,7.36938003 6.16777153,7.38594399 6.04945575,7.41907241 L6.12281117,6.87718883 C6.30265116,6.88192146 6.43989541,6.84287784 6.53454804,6.76005679 C6.62920066,6.67723574 6.67652627,6.56720372 6.67652627,6.42995741 C6.67652627,6.31321917 6.64182082,6.22014548 6.5724089,6.15073355 C6.50299697,6.08132163 6.41071204,6.04661619 6.29555135,6.04661619 C6.1819682,6.04661619 6.08495071,6.08605419 6.00449598,6.16493138 C5.92404124,6.24380857 5.87513812,6.35896753 5.85778514,6.51041174 L5.24491245,6.40629437 C5.28750613,6.19648105 5.35179007,6.02886953 5.43776621,5.9034548 C5.52374235,5.77804007 5.64363387,5.67944507 5.79744439,5.60766682 C5.95125491,5.53588858 6.12359898,5.5 6.31448178,5.5 C6.64103334,5.5 6.90290168,5.60411633 7.10009465,5.81235211 C7.26258166,5.98272683 7.34382395,6.17518429 7.34382395,6.38973024 C7.34382395,6.69419619 7.17739558,6.93713429 6.84453384,7.11855182 C7.04330435,7.1611455 7.20223951,7.25658547 7.32134406,7.40487459 C7.44044862,7.5531637 7.5,7.73221223 7.5,7.94202556 C7.5,8.2464915 7.38878483,8.50599356 7.16635116,8.72053952 C6.94391749,8.93508547 6.66706271,9.04235684 6.33577851,9.04235684 C6.0218473,9.04235684 5.76155648,8.95204381 5.55489825,8.77141505 C5.34824001,8.59078629 5.22834849,8.35455265 5.19522007,8.06270705 Z" id="33" fill="#5F5F5F"></path>
                    </g>
                </g>
            </g>
        </g>
    </g>
</svg>