<?xml version="1.0" encoding="UTF-8"?>
<svg width="32px" height="32px" viewBox="0 0 32 32" version="1.1" xmlns="http://www.w3.org/2000/svg" xmlns:xlink="http://www.w3.org/1999/xlink">
    <!-- Generator: Sketch 57.1 (83088) - https://sketch.com -->
    <title>soccer_icon</title>
    <desc>Created with Sketch.</desc>
    <g id="Page-1" stroke="none" stroke-width="1" fill="none" fill-rule="evenodd">
        <g id="Bet-Chance-Page-English-2" transform="translate(-208.000000, -76.000000)" fill="#FFFFFF" fill-rule="nonzero">
            <g id="Group-34" transform="translate(0.000000, 56.000000)">
                <g id="Group-8" transform="translate(160.000000, 5.000000)">
                    <g id="soccer_icon" transform="translate(48.000000, 15.000000)">
                        <path d="M9.979688,1.17085573 C7.99480455,1.97559796 6.21375966,3.15883434 4.68651808,4.68563375 C3.15883434,6.21287532 1.97692446,7.99436238 1.17174006,9.97880366 C0.394412126,11.8960357 0,13.9220406 0,16.0002211 C0,18.0779594 0.394412126,20.1039643 1.17174006,22.020312 C1.97692446,24.0051955 3.15927651,25.7866825 4.68651808,27.3134819 C6.21375966,28.8411657 7.99436238,30.0235177 9.979688,30.8282599 C11.89692,31.6064722 13.9224828,31.9995578 16.0006632,31.9995578 C18.0788437,31.9995578 20.1039643,31.6051457 22.0211963,30.8282599 C24.0056376,30.0235177 25.7875668,28.8411657 27.3143663,27.3134819 C28.84205,25.7866825 30.024402,24.0060798 30.8291443,22.020312 C31.6064722,20.1039643 32,18.0779594 32,16.0002211 C32,13.9220406 31.60603,11.8960357 30.8291443,9.97880366 C30.024402,7.99436238 28.8411657,6.21243316 27.3143663,4.68563375 C25.7875668,3.15883434 24.0074063,1.97559796 22.0211963,1.17085573 C20.1039643,0.39396996 18.0788437,0 16.0006632,0 C13.9224828,0 11.89692,0.39396996 9.979688,1.17085573 Z M3.99894986,22.7357367 C3.22825441,22.252007 2.51813572,21.6948778 1.88937558,21.0387033 C0.928990894,18.3361844 0.766273784,15.4103716 1.40255075,12.6331265 C1.70189717,12.0428348 2.04236504,11.4759779 2.42749167,10.932998 C2.54643435,10.7654171 2.65653369,10.5907615 2.78387752,10.4280444 L6.39460557,12.5645908 C6.39460557,12.5928894 6.39460557,12.623841 6.39460557,12.6552348 C6.38532009,14.5972282 6.58252615,16.5250722 6.97516961,18.4250598 C6.97649611,18.4339031 6.97782261,18.4387669 6.97959127,18.4467259 L4.17935361,22.8374349 C4.11833469,22.8064833 4.05775794,22.7728786 3.99894986,22.7357367 Z M14.7347418,30.1583784 C15.3577538,30.4762958 15.9984524,30.7446906 16.6568377,30.9631206 C13.8601373,31.0847163 11.0355806,30.4294262 8.5386688,28.9968081 L14.59148,30.0752511 C14.6379074,30.1048763 14.6852192,30.1331749 14.7347418,30.1583784 Z M14.7126335,29.065786 L7.56988296,27.7927899 C6.73418911,26.7780188 5.98250681,25.7044396 5.33650219,24.5570187 C5.17201642,24.2651891 4.9885175,23.9817606 4.84923519,23.6771082 L7.64681986,19.2908209 C7.70872311,19.3062967 7.77770101,19.3226569 7.85596441,19.3434387 C9.60605768,19.8116925 11.3871026,20.1446436 13.1805281,20.4055215 C13.2853215,20.420113 13.3728703,20.4329358 13.4475964,20.4408948 L16.8009838,26.2390184 C16.2190933,27.0570256 15.6305703,27.8706112 15.0292244,28.6753534 C14.9292949,28.8093297 14.823175,28.938 14.7126335,29.065786 Z M26.5962886,26.5958464 C26.027663,27.1649141 25.4241063,27.6778268 24.792251,28.1350265 C24.6874577,27.2975639 24.5066118,26.4769037 24.2514819,25.6752567 L27.8294897,19.0003178 C28.8150779,18.5515193 29.7657349,18.0425861 30.6482984,17.4116151 C30.7637037,17.3298144 30.8596537,17.2382861 30.9339376,17.1383565 C30.6748283,20.587694 29.2289453,23.9636318 26.5962886,26.5958464 Z M26.437551,17.9391193 C26.5706429,18.1929226 26.7019663,18.4493789 26.8337317,18.7093725 L23.3777618,25.1561537 C23.3578643,25.1605754 23.3388512,25.164997 23.3189537,25.16765 C21.4508021,25.516519 19.5676169,25.7022288 17.6685136,25.7110721 L14.2196184,19.7475784 C14.756408,18.7509361 15.2883337,17.7503144 15.8158378,16.7492504 C16.1739923,16.0700833 16.5259565,15.3864946 16.8774785,14.703348 L24.0153653,13.9702367 C24.8895276,15.2525183 25.7177046,16.5622141 26.437551,17.9391193 Z M24.9894571,10.2922994 C24.6507579,11.1868013 24.2881817,12.0720178 23.9278164,12.9590029 L16.9743129,13.6731011 C16.8911857,13.5634439 16.8049633,13.4555554 16.7143193,13.3525307 C15.8932169,12.4226555 15.0668085,11.4985284 14.2417267,10.5717484 C14.2492435,10.5624629 14.2567603,10.5553882 14.2642771,10.5469871 C13.9313261,10.2144782 13.5974907,9.8819693 13.2645397,9.54857609 L15.2003427,3.72038524 C15.3338768,3.68501195 15.4682953,3.65538683 15.6040403,3.64079535 C16.6563955,3.53379116 17.7100772,3.41263766 18.7650855,3.35161874 C19.4110901,3.31536113 20.060632,3.29457932 20.7176908,3.34100676 L25.5072336,8.7394122 C25.3423056,9.26028382 25.1813572,9.78248193 24.9894571,10.2922994 Z M26.5962886,5.40371143 C27.9174808,6.72578795 28.940653,8.23445855 29.6640367,9.84615385 C28.7690926,9.23021652 27.8122452,8.72349422 26.8063174,8.31051112 C26.6497907,8.24595487 26.4892844,8.18891545 26.3261251,8.13276036 L21.6117506,2.8192508 C21.6444709,2.58976662 21.6617153,2.35984027 21.66879,2.12814525 C23.4622155,2.85816142 25.1433309,3.95119592 26.5962886,5.40371143 Z M11.201835,1.84913847 C11.220406,1.86284561 11.2292493,1.87434193 11.2398613,1.87743709 C12.31742,2.24974092 13.2977021,2.79802683 14.2218292,3.44845311 L12.41337,8.89461248 C12.4040845,8.89726548 12.3952412,8.89991848 12.3863979,8.90389797 C12.0163049,9.05688743 11.6391372,9.19395891 11.2747924,9.35977118 C9.77363861,10.0420334 8.31006895,10.7976952 6.93139517,11.7036935 L3.36267289,9.59235053 C3.36797889,9.48092468 3.38699203,9.36773017 3.42501831,9.26691631 C3.66467231,8.62842851 3.90034682,7.98640339 4.17139462,7.36073842 C4.380097,6.87877741 4.61798234,6.41317655 4.87753382,5.95818767 C5.04732559,5.77070926 5.22330768,5.58499952 5.40459576,5.40371143 C7.09941828,3.70933109 9.10243053,2.50619723 11.2349974,1.79475204 C11.2239433,1.81199652 11.212447,1.83012533 11.201835,1.84913847 Z" id="Shape"></path>
                    </g>
                </g>
            </g>
        </g>
    </g>
</svg>