<?xml version="1.0" encoding="UTF-8"?>
<svg width="16px" height="16px" viewBox="0 0 16 16" version="1.1" xmlns="http://www.w3.org/2000/svg" xmlns:xlink="http://www.w3.org/1999/xlink">
    <!-- Generator: Sketch 57.1 (83088) - https://sketch.com -->
    <title>soccer_icon copy 5</title>
    <desc>Created with Sketch.</desc>
    <g id="Page-1" stroke="none" stroke-width="1" fill="none" fill-rule="evenodd">
        <g id="Bet-History-Page-English" transform="translate(-504.000000, -527.000000)" fill="#FFFFFF" fill-rule="nonzero">
            <g id="Group-42-Copy-47" transform="translate(155.000000, 276.000000)">
                <g id="Group-15" transform="translate(349.000000, 111.000000)">
                    <g id="soccer_icon-copy-5" transform="translate(0.000000, 140.000000)">
                        <path d="M4.989844,0.585427865 C3.99740227,0.98779898 3.10687983,1.57941717 2.34325904,2.34281687 C1.57941717,3.10643766 0.988462229,3.99718119 0.585870031,4.98940183 C0.197206063,5.94801785 0,6.9610203 0,8.00011054 C0,9.0389797 0.197206063,10.0519821 0.585870031,11.010156 C0.988462229,12.0025977 1.57963825,12.8933413 2.34325904,13.656741 C3.10687983,14.4205828 3.99718119,15.0117589 4.989844,15.41413 C5.94846002,15.8032361 6.96124138,15.9997789 8.00033162,15.9997789 C9.03942187,15.9997789 10.0519821,15.8025729 11.0105982,15.41413 C12.0028188,15.0117589 12.8937834,14.4205828 13.6571831,13.656741 C14.421025,12.8933413 15.012201,12.0030399 15.4145721,11.010156 C15.8032361,10.0519821 16,9.0389797 16,8.00011054 C16,6.9610203 15.803015,5.94801785 15.4145721,4.98940183 C15.012201,3.99718119 14.4205828,3.10621658 13.6571831,2.34281687 C12.8937834,1.57941717 12.0037031,0.98779898 11.0105982,0.585427865 C10.0519821,0.19698498 9.03942187,0 8.00033162,0 C6.96124138,0 5.94846002,0.19698498 4.989844,0.585427865 Z M1.99947493,11.3678683 C1.61412721,11.1260035 1.25906786,10.8474389 0.944687789,10.5193517 C0.464495447,9.16809219 0.383136892,7.70518578 0.701275373,6.31656326 C0.850948584,6.02141742 1.02118252,5.73798897 1.21374584,5.46649901 C1.27321717,5.38270854 1.32826685,5.29538075 1.39193876,5.21402219 L3.19730279,6.28229539 C3.19730279,6.29644471 3.19730279,6.31192052 3.19730279,6.32761742 C3.19266004,7.29861409 3.29126307,8.2625361 3.48758481,9.21252988 C3.48824806,9.21695154 3.4889113,9.21938345 3.48979564,9.22336295 L2.0896768,11.4187174 C2.05916735,11.4032416 2.02887897,11.3864393 1.99947493,11.3678683 Z M7.36737091,15.0791892 C7.6788769,15.2381479 7.99922621,15.3723453 8.32841884,15.4815603 C6.93006867,15.5423581 5.51779028,15.2147131 4.2693344,14.4984041 L7.29574001,15.0376256 C7.31895372,15.0524381 7.34260961,15.0665874 7.36737091,15.0791892 Z M7.35631676,14.532893 L3.78494148,13.896395 C3.36709455,13.3890094 2.9912534,12.8522198 2.6682511,12.2785093 C2.58600821,12.1325945 2.49425875,11.9908803 2.4246176,11.8385541 L3.82340993,9.64541045 C3.85436155,9.65314836 3.88885051,9.66132843 3.9279822,9.67171934 C4.80302884,9.90584626 5.69355128,10.0723218 6.59026406,10.2027608 C6.64266073,10.2100565 6.68643517,10.2164679 6.72379821,10.2204474 L8.40049191,13.1195092 C8.10954664,13.5285128 7.81528513,13.9353056 7.51461221,14.3376767 C7.46464744,14.4046649 7.41158751,14.469 7.35631676,14.532893 Z M13.2981443,13.2979232 C13.0138315,13.5824571 12.7120532,13.8389134 12.3961255,14.0675132 C12.3437288,13.648782 12.2533059,13.2384519 12.125741,12.8376283 L13.9147449,9.5001589 C14.4075389,9.27575963 14.8828674,9.02129306 15.3241492,8.70580757 C15.3818518,8.66490721 15.4298269,8.61914303 15.4669688,8.56917826 C15.3374142,10.293847 14.6144726,11.9818159 13.2981443,13.2979232 Z M13.2187755,8.96955963 C13.2853215,9.09646129 13.3509831,9.22468945 13.4168659,9.35468627 L11.6888809,12.5780769 C11.6789322,12.5802877 11.6694256,12.5824985 11.6594769,12.583825 C10.7254011,12.7582595 9.78380843,12.8511144 8.83425682,12.8555361 L7.10980918,9.87378922 C7.37820398,9.37546807 7.64416686,8.87515718 7.90791892,8.3746252 C8.08699617,8.03504166 8.26297826,7.6932473 8.43873927,7.35167401 L12.0076826,6.98511835 C12.4447638,7.62625914 12.8588523,8.28110707 13.2187755,8.96955963 Z M12.4947286,5.1461497 C12.325379,5.59340067 12.1440909,6.0360089 11.9639082,6.47950146 L8.48715646,6.83655055 C8.44559285,6.78172196 8.40248166,6.7277777 8.35715964,6.67626535 C7.94660845,6.21132774 7.53340426,5.74926421 7.12086333,5.28587418 C7.12462174,5.28123143 7.12838015,5.2776941 7.13213856,5.27349353 C6.96566304,5.10723909 6.79874535,4.94098465 6.63226983,4.77428804 L7.60017134,1.86019262 C7.66693841,1.84250598 7.73414766,1.82769341 7.80202015,1.82039767 C8.32819776,1.76689558 8.85503862,1.70631883 9.38254273,1.67580937 C9.70554504,1.65768056 10.030316,1.64728966 10.3588454,1.67050338 L12.7536168,4.3697061 C12.6711528,4.63014191 12.5906786,4.89124097 12.4947286,5.1461497 Z M13.2981443,2.70185572 C13.9587404,3.36289398 14.4703265,4.11722928 14.8320183,4.92307692 C14.3845463,4.61510826 13.9061226,4.36174711 13.4031587,4.15525556 C13.3248953,4.12297744 13.2446422,4.09445772 13.1630626,4.06638018 L10.8058753,1.4096254 C10.8222354,1.29488331 10.8308577,1.17992013 10.834395,1.06407263 C11.7311078,1.42908071 12.5716654,1.97559796 13.2981443,2.70185572 Z M5.60091749,0.924569234 C5.61020298,0.931422807 5.61462464,0.937170966 5.61993064,0.938718547 C6.15870998,1.12487046 6.64885106,1.39901342 7.11091459,1.72422655 L6.206685,4.44730624 C6.20204225,4.44863274 6.19762059,4.44995924 6.19319893,4.45194899 C6.00815244,4.52844371 5.81956861,4.59697945 5.63739619,4.67988559 C4.88681931,5.02101671 4.15503448,5.3988476 3.46569759,5.85184673 L1.68133645,4.79617526 C1.68398944,4.74046234 1.69349601,4.68386508 1.71250915,4.63345815 C1.83233616,4.31421426 1.95017341,3.9932017 2.08569731,3.68036921 C2.1900485,3.43938871 2.30899117,3.20658827 2.43876691,2.97909384 C2.52366279,2.88535463 2.61165384,2.79249976 2.70229788,2.70185572 C3.54970914,1.85466554 4.55121527,1.25309862 5.61749872,0.897376021 C5.61197165,0.905998259 5.60622349,0.915062663 5.60091749,0.924569234 Z" id="Shape"></path>
                    </g>
                </g>
            </g>
        </g>
    </g>
</svg>