<?xml version="1.0" encoding="UTF-8"?>
<svg width="34px" height="34px" viewBox="0 0 34 34" version="1.1" xmlns="http://www.w3.org/2000/svg" xmlns:xlink="http://www.w3.org/1999/xlink">
    <!-- Generator: Sketch 57.1 (83088) - https://sketch.com -->
    <title>tennis_icon</title>
    <desc>Created with Sketch.</desc>
    <g id="Page-1" stroke="none" stroke-width="1" fill="none" fill-rule="evenodd">
        <g id="Bet-Chance-Page-English-2" transform="translate(-340.000000, -75.000000)" fill-rule="nonzero" stroke="#FFFFFF">
            <g id="Group-34" transform="translate(0.000000, 56.000000)">
                <g id="Group-8-Copy" transform="translate(293.000000, 5.000000)">
                    <g id="tennis_icon" transform="translate(48.000000, 15.000000)">
                        <path d="M31.9782974,15.9891161 C31.9782974,16.225499 31.9782974,16.4757637 31.9644155,16.7120815 C31.5761141,24.9695153 24.9695804,31.5760489 16.7121466,31.9643503 C16.4757637,31.9782322 16.225499,31.9782322 15.9891813,31.9782322 C15.7527984,31.9782322 15.5442444,31.9782322 15.3218086,31.9643503 C7.02624847,31.6049206 0.380936864,24.9656049 0.0138818737,16.6704358 C0,16.4479348 0,16.2116171 0,15.9891161 C0,15.7666151 0,15.5164155 0.0138818737,15.2800326 C0.388105906,7.0087169 7.0087169,0.388105906 15.2800326,0.0138818737 C15.5164155,0 15.7527984,0 15.9891161,0 C16.225499,0 16.4479348,0 16.6703707,0.0138818737 C24.9610428,0.379112016 31.5991853,7.01718941 31.9643503,15.3078615 C31.9782974,15.5302974 31.9782974,15.7666802 31.9782974,15.9891161 Z" id="Shape" stroke-width="2"></path>
                        <g id="Group" fill="#FAFAFA">
                            <path d="M16.6704358,0.0138818737 C16.8699959,4.58369043 15.0978086,9.01924236 11.8041548,12.1934338 C8.82209369,15.080668 4.832,16.6916171 0.681254582,16.6843424 C0.458818737,16.6843424 0.236317719,16.6843424 0.0138818737,16.6704358 C0,16.4479348 0,16.2116171 0,15.9891161 C0,15.7666151 0,15.5164155 0.0138818737,15.2800326 C4.03037067,15.4765295 7.9481222,13.996057 10.8308595,11.1923747 C13.8641466,8.2872831 15.4874134,4.20881466 15.2800326,0.0138818737 C15.5164155,0 15.7527984,0 15.9891161,0 C16.225499,0 16.4479348,0 16.6704358,0.0138818737 Z" id="Shape"></path>
                            <path d="M31.9782974,15.9891161 C31.9782974,16.225499 31.9782974,16.4757637 31.9644155,16.7120815 C23.9247251,16.3282118 17.0960815,22.5344521 16.7121466,30.5741426 C16.690053,31.0372627 16.690053,31.501165 16.7121466,31.9642851 C16.4757637,31.978167 16.225499,31.978167 15.9891813,31.978167 C15.7527984,31.978167 15.5442444,31.978167 15.3218086,31.9642851 C14.9335071,23.1537923 21.7609776,15.6966843 30.5714705,15.3083829 C31.0355682,15.2879185 31.5003177,15.287723 31.9644155,15.3077963 C31.9782974,15.5302974 31.9782974,15.7666802 31.9782974,15.9891161 Z" id="Shape"></path>
                        </g>
                    </g>
                </g>
            </g>
        </g>
    </g>
</svg>