<?xml version="1.0" encoding="UTF-8"?>
<svg width="16px" height="16px" viewBox="0 0 16 16" version="1.1" xmlns="http://www.w3.org/2000/svg" xmlns:xlink="http://www.w3.org/1999/xlink">
    <!-- Generator: Sketch 57.1 (83088) - https://sketch.com -->
    <title>tennis-ball</title>
    <desc>Created with Sketch.</desc>
    <g id="Page-1" stroke="none" stroke-width="1" fill="none" fill-rule="evenodd">
        <g id="Bet-Select-Liga-Page-Hebrew" transform="translate(-1482.000000, -538.000000)" fill-rule="nonzero">
            <g id="Group-22" transform="translate(1255.000000, 446.000000)">
                <g id="Group-20-Copy" transform="translate(18.000000, 84.000000)">
                    <g id="tennis-ball" transform="translate(209.000000, 8.000000)">
                        <path d="M15.9891487,7.99455804 C15.9891487,8.11274949 15.9891487,8.23788187 15.9822077,8.35604073 C15.788057,12.4847576 12.4847902,15.7880244 8.35607332,15.9821752 C8.23788187,15.9891161 8.11274949,15.9891161 7.99459063,15.9891161 C7.87639919,15.9891161 7.7721222,15.9891161 7.66090428,15.9821752 C3.51312424,15.8024603 0.190468432,12.4828024 0.00694093686,8.33521792 C0,8.22396741 0,8.10580855 0,7.99455804 C0,7.88330754 0,7.75820774 0.00694093686,7.64001629 C0.194052953,3.50435845 3.50435845,0.194052953 7.64001629,0.00694093686 C7.75820774,0 7.87639919,0 7.99455804,0 C8.11274949,0 8.22396741,0 8.33518534,0.00694093686 C12.4805214,0.189556008 15.7995927,3.5085947 15.9821752,7.65393075 C15.9891487,7.76514868 15.9891487,7.88334012 15.9891487,7.99455804 Z" id="Shape" fill="#8BC34A"></path>
                        <g id="Group" fill="#FAFAFA">
                            <path d="M8.33521792,0.00694093686 C8.43499796,2.29184521 7.54890428,4.50962118 5.90207739,6.0967169 C4.41104684,7.54033401 2.416,8.34580855 0.340627291,8.34217121 C0.229409369,8.34217121 0.118158859,8.34217121 0.00694093686,8.33521792 C0,8.22396741 0,8.10580855 0,7.99455804 C0,7.88330754 0,7.75820774 0.00694093686,7.64001629 C2.01518534,7.73826477 3.9740611,6.99802851 5.41542974,5.59618737 C6.93207332,4.14364155 7.74370672,2.10440733 7.64001629,0.00694093686 C7.75820774,0 7.87639919,0 7.99455804,0 C8.11274949,0 8.22396741,0 8.33521792,0.00694093686 Z" id="Shape"></path>
                            <path d="M15.9891487,7.99455804 C15.9891487,8.11274949 15.9891487,8.23788187 15.9822077,8.35604073 C11.9623625,8.16410591 8.54804073,11.2672261 8.35607332,15.2870713 C8.34502648,15.5186314 8.34502648,15.7505825 8.35607332,15.9821426 C8.23788187,15.9890835 8.11274949,15.9890835 7.99459063,15.9890835 C7.87639919,15.9890835 7.7721222,15.9890835 7.66090428,15.9821426 C7.46675356,11.5768961 10.8804888,7.84834216 15.2857352,7.65419145 C15.5177841,7.64395927 15.7501589,7.64386151 15.9822077,7.65389817 C15.9891487,7.76514868 15.9891487,7.88334012 15.9891487,7.99455804 Z" id="Shape"></path>
                        </g>
                    </g>
                </g>
            </g>
        </g>
    </g>
</svg>